<svg transform="scale(1)" version="1.1" id="JBizZ5u7ok" xmlns="http://www.w3.org/2000/svg" xmlns:xlink="http://www.w3.org/1999/xlink" x="0px" y="0px" viewBox="0 0 500 500" xml:space="preserve" class="pbimage_pbimage__wrapper__image__0LEis false"><title>Office Work 3</title><style type="text/css"> .st0{fill:#FFFFFF;} .st1{fill:#D1D3D4;} .st2{fill:#241F20;} .st3{fill:#68E1FD;}
 .st3{fill:#d86f32;}
 .st2{fill:#241F20;}
 .st1{fill:#D1D3D4;}
 .st0{fill:#FFFFFF;}</style><g id="Window"><rect class="st0" x="377.9" y="91.5" width="80.7" height="200.7" fill="#FFFFFF"></rect><path class="st1" d="M458.6,292.9h-80.7c-0.4,0-0.7-0.3-0.7-0.7v0V91.5c0-0.4,0.3-0.7,0.7-0.7l0,0h80.7c0.4,0,0.7,0.3,0.7,0.7v0
		v200.7C459.3,292.5,459,292.9,458.6,292.9L458.6,292.9L458.6,292.9z M378.6,291.5H458V92.2h-79.3L378.6,291.5z" fill="#D1D3D4"></path><rect class="st0" x="288.2" y="91.5" width="80.7" height="200.7" fill="#FFFFFF"></rect><path class="st1" d="M368.9,292.9h-80.7c-0.4,0-0.7-0.3-0.7-0.7v0V91.5c0-0.4,0.3-0.7,0.7-0.7l0,0h80.7c0.4,0,0.7,0.3,0.7,0.7v0
		v200.7C369.6,292.5,369.3,292.9,368.9,292.9L368.9,292.9L368.9,292.9z M288.9,291.5h79.3V92.2h-79.3L288.9,291.5z" fill="#D1D3D4"></path><rect class="st0" x="198.5" y="91.5" width="80.7" height="200.7" fill="#FFFFFF"></rect><path class="st1" d="M279.2,292.9h-80.7c-0.4,0-0.7-0.3-0.7-0.7l0,0V91.5c0-0.4,0.3-0.7,0.7-0.7h80.7c0.4,0,0.7,0.3,0.7,0.7v0
		v200.7C279.9,292.5,279.6,292.9,279.2,292.9L279.2,292.9L279.2,292.9z M199.2,291.5h79.3V92.2h-79.3L199.2,291.5z" fill="#D1D3D4"></path><rect class="st0" x="108.8" y="91.5" width="80.7" height="200.7" fill="#FFFFFF"></rect><path class="st1" d="M189.5,292.9h-80.7c-0.4,0-0.7-0.3-0.7-0.7l0,0V91.5c0-0.4,0.3-0.7,0.7-0.7h80.7c0.4,0,0.7,0.3,0.7,0.7v200.7
		C190.2,292.5,189.9,292.9,189.5,292.9C189.5,292.9,189.5,292.9,189.5,292.9L189.5,292.9z M109.5,291.5h79.3V92.2h-79.3L109.5,291.5
		z" fill="#D1D3D4"></path><path class="st1" d="M324.6,158.7c-0.2,0-0.4-0.1-0.5-0.2c-0.3-0.3-0.3-0.7,0-1c0,0,0,0,0,0l33-32c0.3-0.3,0.7-0.3,1,0s0.3,0.7,0,1
		l-33,32C324.9,158.6,324.8,158.7,324.6,158.7L324.6,158.7z" fill="#D1D3D4"></path><path class="st1" d="M226.1,155.4c-0.2,0-0.4-0.1-0.5-0.2c-0.3-0.3-0.3-0.7,0-1c0,0,0,0,0,0l33-32c0.3-0.3,0.7-0.3,1,0s0.3,0.7,0,1
		l0,0l-33,32C226.4,155.3,226.3,155.3,226.1,155.4L226.1,155.4z" fill="#D1D3D4"></path><path class="st1" d="M318.4,190.3c-0.2,0-0.4-0.1-0.5-0.2c-0.3-0.3-0.2-0.7,0-1c0,0,0,0,0,0l26.9-24.4c0.2-0.3,0.7-0.4,1-0.2
		c0.3,0.2,0.4,0.7,0.2,1c-0.1,0.1-0.1,0.1-0.2,0.2l-26.9,24.4C318.7,190.2,318.6,190.3,318.4,190.3z" fill="#D1D3D4"></path><path class="st1" d="M395.9,137.5c-0.2,0-0.4-0.1-0.6-0.3c-0.2-0.3-0.2-0.7,0.1-1c0,0,0,0,0,0l34.8-26.1c0.3-0.2,0.7-0.2,1,0.1
		c0.2,0.3,0.2,0.7-0.1,1l-34.8,26.1C396.2,137.4,396,137.5,395.9,137.5z" fill="#D1D3D4"></path><path class="st1" d="M232,214.4c-0.4,0-0.7-0.3-0.7-0.7c0-0.2,0.1-0.4,0.2-0.5l27.1-23.7c0.3-0.3,0.7-0.2,1,0.1
		c0.3,0.3,0.2,0.7-0.1,1l-27.1,23.7C232.3,214.4,232.2,214.4,232,214.4z" fill="#D1D3D4"></path><path class="st1" d="M413.3,185.9c-0.2,0-0.4-0.1-0.6-0.3c-0.2-0.3-0.2-0.7,0.1-1c0,0,0,0,0,0l21.3-15.5c0.3-0.2,0.8-0.2,1,0.2
		c0.2,0.3,0.2,0.8-0.1,1l-21.3,15.5C413.6,185.8,413.4,185.9,413.3,185.9L413.3,185.9z" fill="#D1D3D4"></path><path class="st1" d="M123.9,121.5c-0.4,0-0.7-0.3-0.7-0.7c0-0.2,0.1-0.5,0.3-0.6l25.2-15.3c0.3-0.2,0.8-0.1,1,0.3
		c0.2,0.3,0.1,0.7-0.2,0.9l-25.2,15.3C124.2,121.5,124.1,121.5,123.9,121.5z" fill="#D1D3D4"></path><path class="st1" d="M306.5,123.4c-0.2,0-0.4-0.1-0.5-0.2c-0.3-0.3-0.2-0.7,0-1c0,0,0,0,0,0l14.1-12.8c0.2-0.3,0.7-0.4,1-0.2
		c0.3,0.2,0.4,0.7,0.2,1c-0.1,0.1-0.1,0.1-0.2,0.2L307,123.2C306.9,123.3,306.7,123.4,306.5,123.4z" fill="#D1D3D4"></path></g><g id="office_chair"><path class="st2" d="M310.5,184.9l-39.9-0.1c-12.7,0-24.2,10-25.6,22.4L231.6,327l86,0.1L331,207.4
		C332.4,195,323.2,184.9,310.5,184.9L310.5,184.9z"></path><path class="st0" d="M299.5,184.9l-39.9-0.1c-12.7,0-24.2,10-25.6,22.4L220.7,327l86,0.1L320,207.4
		C321.5,195,312.2,184.9,299.5,184.9z"></path><path class="st2" d="M306.7,327.9L306.7,327.9l-86-0.1c-0.2,0-0.4-0.1-0.6-0.2c-0.1-0.2-0.2-0.4-0.2-0.6l13.4-119.8
		c1.4-12.7,13.2-23.1,26.3-23.1l0,0l39.9,0.1l0,0c6.2-0.1,12.1,2.4,16.3,7c3.9,4.5,5.8,10.4,5,16.3l-13.3,119.8
		C307.4,327.6,307.1,327.9,306.7,327.9z M221.5,326.3l84.5,0.1l13.3-119.1c0.7-5.5-1-11-4.6-15.1c-3.9-4.3-9.4-6.6-15.2-6.5
		l-39.9-0.1l0,0c-12.3,0-23.4,9.7-24.8,21.7L221.5,326.3z"></path><path class="st2" d="M300.9,212.7L300.9,212.7l-51.2-0.1c-0.4,0-0.8-0.3-0.8-0.8s0.3-0.8,0.8-0.8l0,0l51.2,0.1
		c0.4,0,0.8,0.3,0.8,0.8S301.3,212.7,300.9,212.7z"></path><path class="st2" d="M298.3,236L298.3,236H247c-0.4,0-0.8-0.3-0.8-0.8s0.3-0.8,0.8-0.8l0,0l51.2,0.1c0.4,0,0.7,0.3,0.7,0.7
		c0,0,0,0,0,0C298.9,235.7,298.6,236,298.3,236z"></path><path class="st2" d="M295.7,259.3L295.7,259.3l-51.2-0.1c-0.4,0-0.8-0.3-0.8-0.8s0.3-0.8,0.8-0.8l0,0l51.2,0.1
		c0.4,0,0.8,0.3,0.8,0.8C296.4,259,296.1,259.3,295.7,259.3z"></path></g><path class="st2" id="floor" d="M478.9,380.5H38c-0.4,0-0.8-0.3-0.8-0.8s0.3-0.8,0.8-0.8h440.9c0.4,0,0.8,0.3,0.8,0.8
	S479.3,380.5,478.9,380.5z"></path><g id="Clock"><g id="clock-2"><path class="st1" d="M57.8,117.6c-12.5,0-22.6-10.1-22.6-22.6c0-12.5,10.1-22.6,22.6-22.6c12.5,0,22.6,10.1,22.6,22.6
			C80.4,107.5,70.2,117.6,57.8,117.6z M57.8,73.9c-11.7,0-21.1,9.5-21.1,21.1s9.5,21.1,21.1,21.1s21.1-9.5,21.1-21.1c0,0,0,0,0,0
			C78.8,83.3,69.4,73.9,57.8,73.9z"></path><polygon class="st1" points="58.5,100.1 45.5,87.5 46.5,86.4 57,96.6 57,78.8 58.5,78.8 		"></polygon></g></g><g id="Keyboard"><rect class="st0" x="101" y="268.3" width="64.8" height="5.9"></rect><path class="st2" d="M165.8,274.9H101c-0.4,0-0.7-0.3-0.8-0.7c0,0,0,0,0,0v-5.9c0-0.4,0.3-0.8,0.8-0.8h64.8c0.4,0,0.7,0.3,0.8,0.8
		v5.9C166.5,274.6,166.2,274.9,165.8,274.9C165.8,274.9,165.8,274.9,165.8,274.9z M101.8,273.4H165v-4.4h-63.3L101.8,273.4z"></path><polygon class="st0" points="203.5,274.2 165.8,274.2 165.8,268.3 203.5,270.7 	"></polygon><path class="st2" d="M203.5,274.9h-37.8c-0.4,0-0.7-0.3-0.8-0.7c0,0,0,0,0,0v-5.9c0-0.4,0.3-0.7,0.7-0.7c0,0,0,0,0.1,0l37.8,2.3
		c0.4,0,0.7,0.4,0.7,0.8v3.5C204.3,274.6,203.9,274.9,203.5,274.9z M166.5,273.4h36.3v-2.1l-36.3-2.3V273.4z"></path></g><g id="Monitor"><rect class="st0" x="62.6" y="166.5" width="120.8" height="88.4"></rect><path class="st2" d="M183.4,255.7H62.6c-0.4,0-0.7-0.3-0.8-0.7c0,0,0,0,0,0v-88.4c0-0.4,0.3-0.7,0.7-0.8c0,0,0,0,0,0h120.8
		c0.4,0,0.7,0.3,0.8,0.7c0,0,0,0,0,0V255C184.1,255.4,183.8,255.7,183.4,255.7z M63.4,254.2h119.3v-86.9H63.3L63.4,254.2z"></path><polygon class="st0" points="135.1,217.9 135.1,255 115.8,255 	"></polygon><path class="st2" d="M135.1,255.7h-19.3c-0.3,0-0.5-0.1-0.7-0.4c-0.1-0.2-0.1-0.5,0-0.7l19.3-37.1c0.2-0.4,0.7-0.5,1-0.3
		c0.2,0.1,0.4,0.4,0.4,0.7v37C135.9,255.3,135.6,255.7,135.1,255.7C135.1,255.7,135.1,255.7,135.1,255.7z M117,254.2h17.3V221
		L117,254.2z"></path><path class="st0" d="M110.1,217.9h25l-13.7,53.2h25.1c0.8,0,1.5,0.7,1.5,1.5s-0.7,1.5-1.5,1.5H98.4c-1.1,0-2-0.9-2-2v-1
		L110.1,217.9L110.1,217.9z"></path><path class="st2" d="M146.5,274.8H98.4c-1.5,0-2.7-1.2-2.7-2.7v-1c0-0.1,0-0.1,0-0.2l13.7-53.2c0.1-0.3,0.4-0.6,0.7-0.6h25
		c0.2,0,0.5,0.1,0.6,0.3c0.1,0.2,0.2,0.4,0.1,0.6l-13.4,52.2h24.1c1.2-0.1,2.3,0.9,2.4,2.1c0.1,1.2-0.9,2.3-2.1,2.4
		C146.7,274.8,146.6,274.8,146.5,274.8L146.5,274.8z M97.2,271.2v0.9c0,0.7,0.6,1.2,1.2,1.2c0,0,0,0,0,0h48.1c0.4,0,0.8-0.2,0.8-0.6
		c0-0.4-0.2-0.8-0.6-0.8c-0.1,0-0.1,0-0.2,0h-25.1c-0.2,0-0.5-0.1-0.6-0.3c-0.1-0.2-0.2-0.4-0.1-0.6l13.5-52.2h-23.4L97.2,271.2z"></path><path class="st0" d="M174.9,249.6L174.9,249.6c-0.5,0-0.8-0.4-0.8-0.8c0,0,0,0,0,0v-3.5c0-0.5,0.4-0.8,0.8-0.8h0l0,0
		c0.5,0,0.8,0.4,0.8,0.8v0v3.5C175.7,249.3,175.4,249.6,174.9,249.6z"></path><path class="st2" d="M174.9,250.4c-0.9,0-1.6-0.7-1.6-1.6c0,0,0,0,0,0v-3.5c0-0.9,0.7-1.6,1.6-1.6c0.9,0,1.6,0.7,1.6,1.6v3.5
		C176.5,249.7,175.8,250.4,174.9,250.4z M174.9,245.2C174.9,245.2,174.8,245.3,174.9,245.2L174.9,245.2l-0.1,3.6
		c0,0.1,0.1,0.1,0.1,0L174.9,245.2C175,245.3,175,245.2,174.9,245.2L174.9,245.2z"></path><path class="st0" d="M170.6,249.6L170.6,249.6c-0.5,0-0.8-0.4-0.8-0.8v-3.5c0-0.5,0.4-0.8,0.8-0.8h0l0,0c0.5,0,0.8,0.4,0.8,0.8v0
		v3.5C171.4,249.3,171.1,249.6,170.6,249.6z"></path><path class="st2" d="M170.6,250.4c-0.9,0-1.6-0.7-1.6-1.6c0,0,0,0,0,0v-3.5c0-0.9,0.7-1.6,1.6-1.6c0.9,0,1.6,0.7,1.6,1.6v3.5
		C172.2,249.7,171.5,250.4,170.6,250.4C170.6,250.4,170.6,250.4,170.6,250.4z M170.6,245.2C170.6,245.2,170.5,245.3,170.6,245.2
		L170.6,245.2l-0.1,3.6c0,0.1,0.1,0.1,0.1,0L170.6,245.2C170.7,245.3,170.7,245.2,170.6,245.2L170.6,245.2z"></path><path class="st0" d="M166.3,249.6L166.3,249.6c-0.5,0-0.8-0.4-0.8-0.8v-3.5c0-0.5,0.4-0.8,0.8-0.8h0l0,0c0.5,0,0.8,0.4,0.8,0.8v0
		v3.5C167.2,249.3,166.8,249.6,166.3,249.6C166.3,249.6,166.3,249.6,166.3,249.6z"></path><path class="st2" d="M166.3,250.4c-0.9,0-1.6-0.7-1.6-1.6v-3.5c0-0.9,0.7-1.6,1.6-1.6c0.9,0,1.6,0.7,1.6,1.6c0,0,0,0,0,0v3.5
		C167.9,249.7,167.2,250.4,166.3,250.4C166.3,250.4,166.3,250.4,166.3,250.4z M166.3,245.2C166.3,245.2,166.3,245.3,166.3,245.2
		L166.3,245.2l-0.1,3.6c0,0.1,0.1,0.1,0.1,0L166.3,245.2C166.4,245.3,166.4,245.2,166.3,245.2L166.3,245.2z"></path><path class="st0" d="M162,249.6L162,249.6c-0.5,0-0.8-0.4-0.8-0.8l0,0v-3.5c0-0.5,0.4-0.8,0.8-0.8l0,0c0.5,0,0.8,0.4,0.8,0.8v0v3.5
		C162.8,249.3,162.5,249.6,162,249.6z"></path><path class="st2" d="M162,250.4c-0.9,0-1.6-0.7-1.6-1.6v-3.5c0.1-0.9,0.8-1.5,1.7-1.4c0.8,0.1,1.4,0.7,1.4,1.4v3.5
		C163.6,249.7,162.9,250.4,162,250.4z M162,245.2C162,245.2,161.9,245.3,162,245.2l-0.1,3.6c0,0.1,0.1,0.1,0.1,0L162,245.2
		C162.1,245.3,162,245.2,162,245.2L162,245.2z"></path><path class="st0" d="M157.8,249.6L157.8,249.6c-0.5,0-0.8-0.4-0.8-0.8c0,0,0,0,0,0v-3.5c0-0.5,0.4-0.8,0.8-0.8h0l0,0
		c0.5,0,0.8,0.4,0.8,0.8v0v3.5C158.6,249.3,158.2,249.6,157.8,249.6z"></path><path class="st2" d="M157.8,250.4c-0.9,0-1.6-0.7-1.6-1.6c0,0,0,0,0,0v-3.5c0-0.9,0.7-1.6,1.6-1.6c0.9,0,1.6,0.7,1.6,1.6v3.5
		C159.3,249.7,158.6,250.4,157.8,250.4z M157.8,245.2C157.7,245.2,157.7,245.3,157.8,245.2L157.8,245.2l-0.1,3.6
		c0,0.1,0.1,0.1,0.1,0L157.8,245.2C157.8,245.3,157.8,245.2,157.8,245.2L157.8,245.2z"></path><path class="st0" d="M153.5,249.6L153.5,249.6c-0.5,0-0.8-0.4-0.8-0.8v-3.5c0-0.5,0.4-0.8,0.8-0.8h0l0,0c0.5,0,0.8,0.4,0.8,0.8v0
		v3.5C154.3,249.3,153.9,249.6,153.5,249.6z"></path><path class="st2" d="M153.5,250.4c-0.9,0-1.6-0.7-1.6-1.6c0,0,0,0,0,0v-3.5c0-0.9,0.7-1.6,1.6-1.6c0.9,0,1.6,0.7,1.6,1.6
		c0,0,0,0,0,0v3.5C155,249.7,154.3,250.4,153.5,250.4C153.5,250.4,153.5,250.4,153.5,250.4z M153.5,245.2
		C153.4,245.2,153.4,245.3,153.5,245.2L153.5,245.2l-0.1,3.6c0,0.1,0.1,0.1,0.1,0L153.5,245.2C153.5,245.3,153.5,245.2,153.5,245.2
		L153.5,245.2z"></path></g><g id="plant"><path class="st2" d="M429.9,351.4c3.2-2.8,6.7-5.2,10.6-6.9c0.3,11.3-4.3,21.8-8.5,28.9h-13.8"></path><path class="st2" d="M410.1,354.4c3.4-17.7,17.3-28.9,17.3-28.9c2.6,8.3,3.4,17.1,2.5,25.8c-0.7,7.5-2.3,14.9-4.8,22h-14.9"></path><path class="st2" d="M402.8,373.4h13.2c0.1-3.9-0.8-9.8-5-17.5c-0.3-0.5-0.6-1-0.8-1.5c-7.6-12.9-14.6-12.8-14.6-12.8
		C392.5,355.2,398.8,367.3,402.8,373.4L402.8,373.4z"></path><polygon class="st0" points="405.2,394.2 431,394.2 435.2,373.4 401,373.4 	"></polygon><path class="st2" d="M431,395h-25.8c-0.4,0-0.7-0.3-0.7-0.6l-4.2-20.9c-0.1-0.4,0.2-0.8,0.6-0.9c0,0,0.1,0,0.1,0h34.2
		c0.2,0,0.4,0.1,0.6,0.3c0.1,0.2,0.2,0.4,0.2,0.6l-4.2,20.9C431.7,394.8,431.4,395,431,395z M405.8,393.5h24.6l3.9-19.4h-32.3
		L405.8,393.5z"></path></g><g id="Character"><g id="Character-2"><path class="st3" d="M260.5,293.4c0,0,20.2-50.5,18.1-75.5s-18.4-26.4-24.1-26.8s-35.7-4.4-46.6,9.1s-8.1,78-8.1,78L260.5,293.4
			L260.5,293.4z"></path><path class="st2" d="M249,149.1c-1-1-2.4-1.5-3.8-1.6c-1,0.1-1.8,0.6-2.3,1.4c-0.2,0.3-0.6,0.5-0.9,0.3c-0.1,0-0.1-0.1-0.2-0.2
			c-2.3-2.6-6-3.8-9.6-4.1c-7.2-0.6-17,2.7-19.6,11.9c-1.4,4.8,3.3,8.5,5.2,10c2.3,1.6,4.7,3,7.2,4.2l5.3,2.6
			c5.4,2.7,12.7,5,18.6,2.1c5.1-2.5,6.1-11.6,5.4-16.5C253.8,155.4,252,151.8,249,149.1L249,149.1z"></path><path class="st0" d="M224.8,189.2v13.5c0,0,3.1,7.4,12,5.2s9.9-8.6,9.9-8.6l-0.4-24.9c0,0-6.6-3.4-4.8-17.7
			c-7.2,3.2-15.1,4.4-22.9,3.5c0,0-3.8,15.5-2.7,22.3S224.8,189.2,224.8,189.2L224.8,189.2z"></path><path class="st2" d="M233.6,209c-4,0-7.7-2.4-9.5-6c0-0.1-0.1-0.2-0.1-0.3v-12.8c-2.1-0.2-8-1.3-9-7.4c-1.2-6.9,2.5-22,2.7-22.6
			c0.1-0.4,0.4-0.6,0.8-0.6c7.7,0.9,15.4-0.3,22.5-3.4c0.4-0.2,0.8,0,1,0.3c0.1,0.1,0.1,0.3,0.1,0.4c-1.7,13.5,4.4,16.9,4.4,16.9
			c0.2,0.1,0.4,0.4,0.4,0.7l0.4,24.9c0,0,0,0.1,0,0.1c0,0.3-1.3,6.8-10.4,9.2C235.8,208.9,234.7,209,233.6,209z M225.6,202.5
			c0.5,1,3.5,6.5,11,4.6c7.8-2,9.2-7.2,9.3-7.9l-0.4-24.5c-1.4-1-6.1-5.1-5-16.9c-6.8,2.8-14.2,3.8-21.5,3.1
			c-0.7,3-3.5,15.5-2.5,21.4c1,6,7.8,6.1,8.2,6.1l0,0c0.4,0,0.7,0.3,0.8,0.7c0,0,0,0.1,0,0.1L225.6,202.5z"></path><path class="st0" d="M241.1,174c0.9-4.3,8.2-7.3,10.3-2.4c1.6,5.6-4.2,11.6-9.7,9"></path><path class="st2" d="M244.3,181.9c-1,0-2.1-0.2-3-0.7c-0.4-0.2-0.5-0.6-0.4-1c0,0,0,0,0,0c0.2-0.4,0.6-0.5,1-0.4c0,0,0,0,0,0
			c2.1,1,4.6,0.6,6.4-1c2-1.7,2.9-4.4,2.4-7c-0.6-1.4-2.1-2.3-3.6-2c-2.4,0.2-4.8,2.2-5.3,4.3c-0.1,0.4-0.5,0.7-0.9,0.6
			c-0.4-0.1-0.7-0.5-0.6-0.9c0,0,0,0,0,0c0.6-2.7,3.5-5.2,6.6-5.5c2.2-0.3,4.3,0.9,5.1,3c0,0,0,0.1,0,0.1c0.8,3.2-0.3,6.6-2.8,8.7
			C247.9,181.3,246.1,181.9,244.3,181.9z"></path><path class="st0" d="M226.9,168.4c0,0-4.8,6.8-3.7,8s3.4,1.4,3.4,1.4"></path><path class="st2" d="M226.6,178.5L226.6,178.5c-0.3,0-2.7-0.2-4-1.6s1.3-5.6,3.7-9c0.2-0.3,0.7-0.4,1-0.2s0.4,0.7,0.2,1
			c-2.2,3.1-4,6.5-3.7,7.2c0.8,0.6,1.8,1,2.9,1c0.4,0,0.7,0.4,0.7,0.8C227.4,178.1,227.1,178.5,226.6,178.5
			C226.7,178.5,226.6,178.5,226.6,178.5z"></path><path class="st2" d="M234.1,166.7c0.6,0,1.2,0.6,1.2,1.5s-0.4,1.6-1,1.7c-0.8,0-1.4-0.5-1.5-1.3c0,0,0,0,0,0
			C232.8,167.7,233.5,166.8,234.1,166.7z"></path><ellipse class="st2" transform="matrix(0.2351 -0.972 0.972 0.2351 5.5353 343.2854)" cx="220.9" cy="168.1" rx="1.6" ry="1.1"></ellipse><path class="st2" d="M224.8,189.2c0,0,8.4,1.9,13.3-0.9c0,0-5.5,11.3-13.3,10.1L224.8,189.2z"></path><path class="st3" d="M207.9,200.2c0,0-8.1,15.6-12.9,23.6c-3.9,6.4-11.3,15.1-14.1,18.3c-0.7,0.8-1.1,1.2-1.1,1.2s5.1,24,11.4,21
			s19.3-17.8,19.3-17.8L207.9,200.2L207.9,200.2z"></path><path class="st3" d="M199.3,230.1l-19.4,13.2c-1.9,3.4-2.6,7.5-1.8,11.3c1.4,6.1,7.5,13.1,12.9,15c5.7,2,21.8-22.8,21.8-22.8
			L199.3,230.1z"></path><path class="st0" d="M236.9,256.6c-5.5,0.3-11,0.1-16.5-0.8c-4.2-0.8-7.9-1.6-12.3-1.4c-5.5,0.3-10.9,1.5-15.9,3.6
			c-0.2,0.1-0.4,0.2-0.5,0.4c-0.5,0.7,0.7,1.3,1.5,1.4c2.2,0.1,4.4-0.2,6.5-0.8c-5.2,1.9-10.2,4.6-14.7,7.8c-0.5,0.4-1.1,1-0.8,1.5
			s1.3,0.5,2,0.2L198,263c-3.1,1.2-5.9,3-8.4,5.1c-0.4,0.3-0.7,0.7-0.6,1.2c0.2,0.8,1.4,0.6,2.1,0.3c3.6-1.8,7.1-3.9,10.3-6.3
			l-7.4,5.7c-0.1,0.6,0.5,1.1,1.1,1.1c0.6,0,1.2-0.2,1.7-0.6l8.2-4.7l-5.1,3.6c-0.8,0.6-1.7,1.5-1.3,2.4c0.5,1.1,2,0.7,3.1,0.3
			c4.2-1.8,8.6-3.2,13.1-4c1.6-0.3,3.2-1,4.9-1c2.4,0.1,5.1,1.1,7.4,1.6c3.7,0.8,7.4,1.7,11.1,2.5"></path><path class="st2" d="M199.8,272.1c-0.3,0-0.6,0-0.9-0.1c-0.5-0.2-0.8-0.5-1-1c-0.2-0.4-0.2-0.8-0.1-1.2l-0.6,0.3
			c-0.6,0.4-1.3,0.7-2.1,0.7c-0.6,0-1.1-0.3-1.5-0.7c-0.2-0.2-0.3-0.5-0.4-0.8c-0.6,0.3-1.3,0.7-1.9,1c-0.7,0.4-1.6,0.5-2.4,0.2
			c-0.4-0.2-0.7-0.6-0.8-1c-0.1-0.5,0-0.9,0.3-1.3l-2.1,1c-0.7,0.3-1.4,0.4-2.1,0.2c-0.4-0.1-0.7-0.4-0.8-0.8
			c-0.2-0.4-0.4-1.4,1.1-2.4c3-2.1,6.2-4,9.5-5.6h-0.9c-0.9,0-1.7-0.5-2.2-1.2c-0.2-0.4-0.2-1,0.1-1.4c0.2-0.3,0.5-0.5,0.9-0.6
			c5.1-2.2,10.6-3.4,16.1-3.7c3.7-0.1,7.4,0.3,11.1,1.1l1.4,0.3c5.4,0.8,10.9,1.1,16.3,0.8c0.4,0,0.8,0.3,0.8,0.7
			c0,0.4-0.3,0.8-0.7,0.8c0,0,0,0,0,0c-5.6,0.3-11.2,0.1-16.7-0.8l-1.5-0.3c-3.5-0.8-7.1-1.2-10.7-1.1c-5.4,0.3-10.7,1.5-15.6,3.6
			h-0.1c0.2,0.1,0.5,0.2,0.8,0.2c2.1,0.1,4.2-0.2,6.3-0.8c0.4-0.1,0.8,0.2,0.9,0.6c0.1,0.3-0.1,0.7-0.4,0.8
			c-5.2,1.9-10,4.5-14.5,7.7c-0.5,0.3-0.6,0.6-0.6,0.6c0.3,0,0.7,0,1-0.2l7.4-3.4l1.8-0.8c0.9-0.5,1.8-0.9,2.7-1.2
			c0.4-0.2,0.8,0,1,0.4c0.2,0.4,0,0.8-0.4,1l-2.6,1.2c-2,1-3.9,2.3-5.6,3.8c-0.4,0.3-0.4,0.5-0.4,0.5c0.3,0,0.7-0.1,1-0.2
			c3.6-1.8,7-3.9,10.2-6.2c0.3-0.2,0.8-0.2,1,0.1c0.3,0.3,0.2,0.8-0.1,1l-6.9,5.3c0.1,0.1,0.2,0.1,0.3,0.1c0.5,0,0.9-0.2,1.3-0.5
			l8.2-4.7c0.4-0.2,0.8,0,1,0.3c0.2,0.3,0.1,0.7-0.2,0.9l-5,3.7c-0.6,0.5-1.2,1.1-1.1,1.5c0,0.1,0.1,0.2,0.2,0.2
			c0.6,0.1,1.3,0,1.9-0.3c4.3-1.9,8.7-3.2,13.3-4.1c0.5-0.1,1.1-0.2,1.6-0.4c1.1-0.4,2.3-0.6,3.5-0.6c1.8,0.1,3.6,0.5,5.3,1
			c0.8,0.2,1.5,0.4,2.2,0.6c3.7,0.8,7.4,1.7,11.1,2.5c0.4,0.1,0.6,0.5,0.6,0.9c0,0,0,0,0,0c-0.1,0.4-0.5,0.7-0.9,0.6
			c-3.7-0.9-7.4-1.7-11.1-2.5c-0.8-0.2-1.5-0.4-2.3-0.6c-1.6-0.5-3.3-0.9-5-1c-1,0-2,0.2-3,0.5c-0.6,0.1-1.1,0.3-1.7,0.4
			c-4.5,0.8-8.8,2.2-13,4C201.2,272,200.5,272.1,199.8,272.1z"></path><path class="st3" d="M270.4,197.3c6.9,1.2,34.6,65.4,25.1,72.7c-14.8,11.4-66.4-0.1-66.4-0.1l4.2-19.9c0,0,33.2,0.9,33.6-5.9
			s-19.3-38.4-16.7-43.1S270.4,197.3,270.4,197.3L270.4,197.3z"></path></g><polygon class="st0" points="210.2,223.6 203.8,205.9 237.6,200.4 253.8,244.3 219.5,251.2 	"></polygon><path class="st2" d="M219.5,252c-0.3,0-0.6-0.2-0.7-0.5l-9.4-27.7l-6.3-17.7c-0.1-0.2-0.1-0.4,0.1-0.6c0.1-0.2,0.3-0.3,0.5-0.4
		l33.8-5.4c0.4-0.1,0.7,0.1,0.8,0.5l16.1,43.8c0.1,0.4-0.1,0.8-0.4,1c0,0-0.1,0-0.1,0l-34.2,7H219.5z M204.8,206.5l6,16.8l0,0
		l9.2,27.1l32.7-6.7l-15.6-42.4L204.8,206.5z"></path><path class="st0" d="M210.2,223.6c0,0,14.4-2.2,19.8-3.3s6.1,12-2.2,15.1s-16.1,3.7-17.7,5c-1.1,0.9-2.1,1.9-3.1,3
		c0,0-6.5-4.8-8.1-9.6c0,0,5.4-13.8,8.7-17C208.9,218.9,209.7,221.2,210.2,223.6z"></path><path class="st2" d="M207.1,244.1c-0.2,0-0.3,0-0.4-0.1c-0.3-0.2-6.8-5-8.3-10c-0.1-0.2-0.1-0.3,0-0.5c0.2-0.6,5.5-14,8.9-17.3
		c0.3-0.3,0.8-0.3,1,0c0.1,0.1,0.1,0.1,0.1,0.2c1,2,1.8,4.1,2.3,6.2c2.9-0.4,14.4-2.2,19.1-3.2c2.1-0.4,3.9,0.9,4.6,3.5
		c1.1,4-0.4,10.8-6.4,13c-3.9,1.4-7.9,2.5-12,3.3c-2.6,0.6-4.9,1.1-5.4,1.6c-1.1,0.9-2.1,1.9-3,3C207.5,244,207.3,244.1,207.1,244.1
		z M199.8,233.8c1.3,3.6,5.7,7.3,7.2,8.6c0.8-0.9,1.7-1.8,2.7-2.6c0.9-0.7,2.9-1.2,6.1-1.9c4-0.8,7.9-1.9,11.8-3.2
		c5-1.9,6.4-7.8,5.5-11.2c-0.2-0.9-1-2.8-2.9-2.4c-5.4,1.1-19.7,3.3-19.9,3.3c-0.4,0.1-0.8-0.2-0.9-0.6c-0.4-1.9-1-3.8-1.9-5.6
		C204.6,221.9,200.5,232.1,199.8,233.8z"></path><path class="st0" d="M223,182.4c0,0,6.1,1.6,9.8-1.2"></path><path class="st2" d="M226.9,183.6c-1.3,0-2.7-0.2-4-0.5c-0.4-0.1-0.7-0.5-0.6-0.9s0.5-0.7,0.9-0.6c0,0,0.1,0,0.1,0
		c0.1,0,5.8,1.4,9.2-1.1c0.3-0.3,0.8-0.2,1.1,0.1s0.2,0.8-0.1,1.1c0,0-0.1,0.1-0.1,0.1C231.4,183.1,229.2,183.7,226.9,183.6z"></path><path class="st2" d="M229.1,270.6H229c-0.4-0.1-0.7-0.5-0.6-0.9l4.2-19.9c0.1-0.4,0.4-0.6,0.8-0.6c12.6,0.4,32.6-0.8,32.9-5.2
		c0.2-3-4.1-11.7-8.2-20.2l-1.5-3c-0.2-0.4,0-0.8,0.3-1s0.8,0,1,0.3l1.5,3c4.4,9,8.6,17.6,8.4,20.9c-0.5,6.9-26.9,6.8-33.8,6.6
		l-4.1,19.3C229.8,270.4,229.5,270.6,229.1,270.6z"></path><path class="st2" d="M184.6,240.8c-0.2,0-0.5-0.1-0.6-0.3c-0.2-0.3-0.1-0.8,0.2-1l14.6-9.9c0.3-0.2,0.8-0.1,1,0.1l0.9,1.1
		c0.2,0.3,0.1,0.8-0.2,1c-0.3,0.2-0.7,0.2-0.9-0.1l-0.4-0.5l-14.1,9.6C184.9,240.8,184.8,240.8,184.6,240.8z"></path><path class="st2" d="M209.1,253c-0.2,0-0.3,0-0.4-0.1c-0.3-0.2-0.4-0.7-0.2-1l3.4-4.9l-3.8-4.7c-0.3-0.3-0.2-0.8,0.1-1.1
		c0.3-0.3,0.8-0.2,1.1,0.1l4.1,5.1c0.2,0.3,0.2,0.6,0,0.9l-3.7,5.4C209.5,252.9,209.3,253,209.1,253z"></path></g><g id="Desk"><g id="desk-2"><rect class="st0" x="62.6" y="284.4" width="299.5" height="121"></rect><path class="st2" d="M362.1,406.2H62.6c-0.4,0-0.7-0.3-0.8-0.7c0,0,0,0,0,0v-121c0-0.4,0.3-0.8,0.8-0.8h299.5
			c0.4,0,0.7,0.3,0.8,0.8v121C362.9,405.8,362.5,406.2,362.1,406.2z M63.3,404.7h298V285.1h-298V404.7z"></path></g><rect class="st0" x="57.8" y="274" width="313.7" height="12.6"></rect><path class="st2" d="M371.5,287.5H57.8c-0.4,0-0.7-0.3-0.8-0.7c0,0,0,0,0,0V274c0-0.4,0.3-0.8,0.8-0.8h313.7c0.4,0,0.7,0.3,0.8,0.8
		v12.7C372.2,287.1,371.9,287.5,371.5,287.5z M58.5,286h312.2v-11.2H58.5V286z"></path><path class="st2" d="M256.3,287.8c-0.4,0-0.8-0.3-0.8-0.8v-12.9c0-0.4,0.3-0.8,0.8-0.8s0.8,0.3,0.8,0.8V287
		C257.1,287.5,256.8,287.8,256.3,287.8C256.4,287.8,256.3,287.8,256.3,287.8z"></path><path class="st2" d="M249.6,406.2c-0.4,0-0.8-0.3-0.8-0.8V287.8c0-0.4,0.3-0.8,0.8-0.8s0.8,0.3,0.8,0.8v117.7
		C250.4,405.8,250.1,406.2,249.6,406.2C249.7,406.2,249.6,406.2,249.6,406.2z"></path></g></svg>