<svg transform="scale(1)" version="1.1" id="nn41bCsxdL" xmlns="http://www.w3.org/2000/svg" xmlns:xlink="http://www.w3.org/1999/xlink" x="0px" y="0px" viewBox="0 0 500 500" xml:space="preserve" class="pbimage_pbimage__wrapper__image__0LEis false"><title>Bitcoin 1</title><style type="text/css"> .st0{fill:#FFFFFF;} .st1{fill:#231F20;} .st2{fill:#D1D3D4;} .st3{fill:#68E1FD;}
 .st3{fill:#d86f32;}
 .st2{fill:#D1D3D4;}
 .st1{fill:#231F20;}
 .st0{fill:#FFFFFF;}</style><g id="Laptop"><path class="st0" d="M101.1,158.5h277.2c11.5,0,20.7,9.3,20.7,20.7v169.3l0,0H80.4l0,0V179.2C80.4,167.8,89.7,158.5,101.1,158.5z" fill="#FFFFFF"></path><path class="st1" d="M399.1,349.2H80.4c-0.4,0-0.6-0.3-0.6-0.6l0,0V179.2c0-11.8,9.6-21.4,21.4-21.4h277.2
		c11.8,0,21.4,9.6,21.4,21.4v169.3C399.7,348.9,399.4,349.2,399.1,349.2L399.1,349.2z M81,347.9h317.4V179.2
		c0-11.1-9-20.1-20.1-20.1H101.1c-11.1,0-20.1,9-20.1,20.1V347.9z" fill="#231F20"></path><path class="st2" d="M379.1,349.2H100.3c-0.4,0-0.7-0.3-0.7-0.7l0,0v-173c0-0.4,0.3-0.7,0.7-0.7h278.8c0.4,0,0.7,0.3,0.7,0.7
		c0,0,0,0,0,0v173C379.8,348.9,379.5,349.2,379.1,349.2L379.1,349.2z M101,347.8h277.4V176.2H101V347.8z" fill="#D1D3D4"></path><path class="st1" d="M425.6,349.2H53.8c-0.4,0-0.7-0.3-0.7-0.7l0,0c0-0.4,0.3-0.7,0.7-0.7h371.8c0.4,0,0.7,0.3,0.7,0.7
		C426.4,348.9,426,349.2,425.6,349.2L425.6,349.2z" fill="#231F20"></path><path class="st2" d="M186.3,328.5h-18.8c-0.4,0-0.7-0.3-0.7-0.7c0-0.4,0.3-0.7,0.7-0.7h18.1v-20.7c0-0.4,0.3-0.7,0.7-0.7
		c0.4,0,0.7,0.3,0.7,0.7v21.4C187,328.2,186.7,328.5,186.3,328.5z" fill="#D1D3D4"></path><path class="st2" d="M327,349.2c-0.4,0-0.7-0.3-0.7-0.7v0v-28.7h-27.2c-0.4,0-0.7-0.3-0.7-0.6c-0.3-4.2-1-17.9,0.1-19.5
		c0.2-0.3,0.6-0.4,1-0.2c0,0,0,0,0,0c0.3,0.2,0.4,0.7,0.2,1c0,0,0,0,0,0c-0.6,1-0.4,9.8,0.1,18H327c0.4,0,0.7,0.3,0.7,0.7v0v29.4
		C327.7,348.9,327.4,349.2,327,349.2z" fill="#D1D3D4"></path><path class="st2" d="M203.2,342.8c-1.7,0-3.1-1.4-3.1-3.1s1.4-3.1,3.1-3.1c1.7,0,3.1,1.4,3.1,3.1
		C206.3,341.4,204.9,342.8,203.2,342.8z M203.2,338c-0.9,0-1.7,0.7-1.7,1.7c0,0.9,0.7,1.7,1.7,1.7c0.9,0,1.7-0.7,1.7-1.7
		C204.9,338.8,204.2,338,203.2,338C203.2,338,203.2,338,203.2,338L203.2,338z" fill="#D1D3D4"></path><path class="st2" d="M233.6,353.1c-0.4,0-0.7-0.3-0.7-0.7l0,0v-30.2c0-0.4,0.3-0.7,0.7-0.7c0.4,0,0.7,0.3,0.7,0.7v30.2
		C234.3,352.8,234,353.1,233.6,353.1C233.6,353.1,233.6,353.1,233.6,353.1z" fill="#D1D3D4"></path><path class="st2" d="M291.2,349.2c-0.4,0-0.7-0.3-0.7-0.7V335h-6.6c-0.2,0-0.4-0.1-0.5-0.2c-0.1-0.1-0.2-0.3-0.2-0.5
		c0.1-8.7,0.2-22,0-22.9c-0.1-0.4,0.1-0.7,0.4-0.9c0,0,0,0,0,0c0.4-0.1,0.8,0.1,0.9,0.5c0.2,0.6,0.1,12.5,0,22.6h6.6
		c0.4,0,0.7,0.3,0.7,0.7v0v14.3C291.8,348.9,291.5,349.2,291.2,349.2z" fill="#D1D3D4"></path><path class="st2" d="M251.5,353.1L251.5,353.1c-0.4,0-0.7-0.3-0.7-0.7c0,0,0,0,0,0c0.1-11.5,0.1-28.8,0-30
		c-0.1-0.4,0.2-0.8,0.5-0.8c0.3-0.1,0.6,0.1,0.8,0.4c0.1,0.2,0.3,0.6,0.1,30.5C252.2,352.8,251.9,353.1,251.5,353.1z" fill="#D1D3D4"></path><path class="st2" d="M203.2,338.2c-0.4,0-0.7-0.3-0.7-0.7l0,0V322c0-0.4,0.3-0.7,0.7-0.7c0.4,0,0.7,0.3,0.7,0.7v15.5
		C203.9,337.9,203.6,338.2,203.2,338.2C203.2,338.2,203.2,338.2,203.2,338.2z" fill="#D1D3D4"></path><path class="st2" d="M264.9,338.5c-0.4,0-0.7-0.3-0.7-0.7v0v-10.9c0-0.4,0.3-0.7,0.7-0.7c0.4,0,0.7,0.3,0.7,0.7v10.9
		C265.6,338.2,265.2,338.5,264.9,338.5z" fill="#D1D3D4"></path><path class="st0" d="M47.2,348.5h385l0,0l0,0c0,12.7-10.3,23-23,23h-339C57.6,371.5,47.3,361.2,47.2,348.5L47.2,348.5L47.2,348.5
		L47.2,348.5z" fill="#FFFFFF"></path><path class="st1" d="M409.2,372.2H70.3c-13.1,0-23.7-10.6-23.7-23.7c0-0.4,0.3-0.6,0.6-0.6c0,0,0,0,0,0h385c0.4,0,0.6,0.3,0.6,0.6
		v0C432.9,361.6,422.2,372.2,409.2,372.2z M47.9,349.2c0.4,12.1,10.3,21.7,22.4,21.8h338.9c12.1,0,22-9.6,22.4-21.8H47.9z" fill="#231F20"></path><rect class="st1" x="208.5" y="348.5" width="62.4" height="5.8" fill="#231F20"></rect><path class="st2" d="M185.4,215.1c-0.4,0-0.7-0.3-0.7-0.7v-25.7h-17.2c-0.4,0-0.7-0.3-0.7-0.7c0-0.4,0.3-0.7,0.7-0.7c0,0,0,0,0,0
		h17.9c0.4,0,0.7,0.3,0.7,0.7v26.3C186.1,214.8,185.8,215.1,185.4,215.1C185.4,215.1,185.4,215.1,185.4,215.1z" fill="#D1D3D4"></path><circle class="st0" cx="203.2" cy="339.7" r="2.4" fill="#FFFFFF"></circle><path class="st2" d="M203.2,342.8c-1.7,0-3.1-1.4-3.1-3.1s1.4-3.1,3.1-3.1c1.7,0,3.1,1.4,3.1,3.1
		C206.3,341.4,204.9,342.8,203.2,342.8z M203.2,338c-0.9,0-1.7,0.7-1.7,1.7c0,0.9,0.7,1.7,1.7,1.7c0.9,0,1.7-0.7,1.7-1.7
		C204.9,338.8,204.2,338,203.2,338C203.2,338,203.2,338,203.2,338L203.2,338z" fill="#D1D3D4"></path><circle class="st0" cx="167.5" cy="327.8" r="2.4" fill="#FFFFFF"></circle><path class="st2" d="M167.5,330.9c-1.7,0-3.1-1.4-3.1-3.1s1.4-3.1,3.1-3.1c1.7,0,3.1,1.4,3.1,3.1
		C170.5,329.5,169.2,330.9,167.5,330.9z M167.5,326.1c-0.9,0-1.7,0.7-1.7,1.7c0,0.9,0.7,1.7,1.7,1.7c0.9,0,1.7-0.7,1.7-1.7
		S168.4,326.1,167.5,326.1L167.5,326.1z" fill="#D1D3D4"></path><circle class="st0" cx="264.9" cy="339.7" r="2.4" fill="#FFFFFF"></circle><path class="st2" d="M264.9,342.8c-1.7,0-3.1-1.4-3.1-3.1c0-1.7,1.4-3.1,3.1-3.1c1.7,0,3.1,1.4,3.1,3.1
		C267.9,341.4,266.6,342.8,264.9,342.8z M264.9,338c-0.9,0-1.7,0.8-1.7,1.7s0.8,1.7,1.7,1.7c0.9,0,1.7-0.8,1.7-1.7
		C266.6,338.8,265.8,338,264.9,338C264.9,338,264.9,338,264.9,338L264.9,338z" fill="#D1D3D4"></path><circle class="st0" cx="165.1" cy="188.1" r="2.4" fill="#FFFFFF"></circle><path class="st2" d="M165.1,191.1c-1.7,0-3.1-1.4-3.1-3.1s1.4-3.1,3.1-3.1s3.1,1.4,3.1,3.1C168.2,189.7,166.8,191.1,165.1,191.1z
		 M165.1,186.4c-0.9,0-1.7,0.7-1.7,1.7s0.7,1.7,1.7,1.7s1.7-0.7,1.7-1.7l0,0C166.8,187.1,166,186.4,165.1,186.4L165.1,186.4z" fill="#D1D3D4"></path><circle class="st0" cx="260.1" cy="183.3" r="2.4" fill="#FFFFFF"></circle><path class="st2" d="M260.1,186.4c-1.7,0-3.1-1.4-3.1-3.1c0-1.7,1.4-3.1,3.1-3.1c1.7,0,3.1,1.4,3.1,3.1
		C263.2,185,261.8,186.4,260.1,186.4z M260.1,181.6c-0.9,0-1.7,0.7-1.7,1.7s0.7,1.7,1.7,1.7c0.9,0,1.7-0.7,1.7-1.7
		S261,181.6,260.1,181.6L260.1,181.6z" fill="#D1D3D4"></path><path class="st2" d="M291.2,220.3c-0.4,0-0.7-0.3-0.7-0.7c0,0,0,0,0,0v-25c0-0.4,0.3-0.7,0.7-0.7l0,0h26.9v-18.4
		c0-0.4,0.3-0.7,0.7-0.7c0.4,0,0.7,0.3,0.7,0.7v19c0,0.4-0.3,0.7-0.7,0.7l0,0h-26.9v24.3C291.9,219.9,291.6,220.3,291.2,220.3
		C291.2,220.3,291.2,220.3,291.2,220.3z" fill="#D1D3D4"></path><path class="st2" d="M273.9,208.1c-0.4,0-0.7-0.3-0.7-0.7c0,0,0,0,0,0v-31.9c0-0.4,0.3-0.7,0.7-0.7c0.4,0,0.7,0.3,0.7,0.7v31.9
		C274.5,207.8,274.2,208.1,273.9,208.1z" fill="#D1D3D4"></path><path class="st2" d="M205.6,206.1c-0.4,0-0.7-0.3-0.7-0.7V185h-7.3c-0.4,0-0.7-0.3-0.7-0.7v-8.7c0-0.4,0.3-0.7,0.7-0.7
		c0.4,0,0.7,0.3,0.7,0.7c0,0,0,0,0,0v8h7.3c0.4,0,0.7,0.3,0.7,0.7v21.1C206.3,205.8,206,206.1,205.6,206.1z" fill="#D1D3D4"></path><path class="st2" d="M260.1,198.2c-0.4,0-0.7-0.3-0.7-0.7c0,0,0,0,0,0v-11.9c0-0.4,0.3-0.7,0.7-0.7c0.4,0,0.7,0.3,0.7,0.7v11.9
		C260.8,197.9,260.5,198.2,260.1,198.2z" fill="#D1D3D4"></path><path class="st2" d="M227.3,199.4c-0.4,0-0.7-0.3-0.7-0.7v-23.2c0-0.4,0.3-0.7,0.7-0.7c0.4,0,0.7,0.3,0.7,0.7v23.2
		C228,199.1,227.7,199.4,227.3,199.4z" fill="#D1D3D4"></path><path class="st2" d="M247.2,193.6c-0.4,0-0.7-0.3-0.7-0.7v-17.4c0-0.4,0.3-0.7,0.7-0.7c0.4,0,0.7,0.3,0.7,0.7v17.4
		C247.9,193.3,247.6,193.6,247.2,193.6z" fill="#D1D3D4"></path><circle class="st0" cx="239.7" cy="262" r="72.2" fill="#FFFFFF"></circle><path class="st1" d="M239.7,334.9c-40.3,0-72.9-32.6-72.9-72.9s32.6-72.9,72.9-72.9c40.2,0,72.9,32.6,72.9,72.9
		C312.5,302.2,280,334.8,239.7,334.9z M239.7,190.4c-39.5,0-71.6,32.1-71.6,71.6s32.1,71.6,71.6,71.6s71.6-32.1,71.6-71.6
		C311.3,222.5,279.2,190.5,239.7,190.4z" fill="#231F20"></path><path class="st2" d="M239.7,319.4c-31.7,0-57.3-25.7-57.3-57.4s25.7-57.3,57.4-57.3c31.7,0,57.3,25.7,57.3,57.3
		C297,293.7,271.4,319.3,239.7,319.4z M239.7,206.1c-30.9,0-55.9,25.1-55.9,56s25.1,55.9,56,55.9c30.9,0,55.9-25.1,55.9-55.9
		C295.7,231.1,270.6,206.1,239.7,206.1L239.7,206.1z" fill="#D1D3D4"></path><path class="st3" d="M247.5,214.8c0,0.6,0.1,1.3,0.1,1.9c0,3.8,0,7.7,0,11.5c0,0.7,0.2,0.9,0.9,1c4,0.3,7.9,1.2,11.6,2.7
		c5.7,2.5,8.5,6.9,8.7,13c0.3,3.1-0.5,6.2-2.1,8.9c-1,1.5-2.3,2.7-3.8,3.7c-0.4,0.3-0.9,0.5-1.5,0.9c0.9,0.3,1.7,0.5,2.5,0.8
		c3.7,1.4,6.9,3.4,8.5,7.1c0.7,1.8,1.2,3.6,1.4,5.5c0.4,3.5-0.1,7-1.3,10.2c-1.7,4.7-5.4,8.3-10.1,9.9c-4.3,1.5-8.8,2.4-13.4,2.6
		c-1.7,0.1-1.4,0-1.4,1.5c0,4,0,8,0,12v1h-8.8V295h-6.9v14.2h-8.7v-14.4h-17.6l1.8-10.4l1,0c1.8,0,3.6,0,5.4,0
		c1.7,0.1,3.1-1.2,3.3-2.8c0-0.1,0-0.3,0-0.4c0-0.2,0-0.4,0-0.6v-37.2c0-3-1.7-4.8-4.7-4.9c-2.2-0.1-4.4,0-6.6,0v-9.3h17.4v-14.3
		h8.7c0,0.4,0.1,0.7,0.1,1.1c0,3.9,0,7.9,0,11.8v1h6.9v-13.9L247.5,214.8z M232.1,284.3c0.2,0,0.4,0.1,0.5,0.1c3.5-0.1,7,0,10.5-0.3
		c3.1-0.2,6.1-0.9,8.9-2.3c3.9-1.9,5.5-6.5,3.7-10.4c-1.2-2.3-3.4-4-5.9-4.7c-3.8-1.1-7.8-1.7-11.8-1.5c-1.9,0-3.9,0-5.8,0
		L232.1,284.3z M232.1,256.6c3.2-0.1,6.4-0.1,9.5-0.5c2.2-0.2,4.4-0.8,6.4-1.7c5.8-2.7,5.3-9.1,2.1-12.2c-1.8-1.5-4-2.5-6.3-2.8
		c-3.6-0.5-7.2-0.7-10.8-0.5c-0.8,0-1,0.2-1,1c0,5.2,0,10.4,0,15.6C232,255.8,232.1,256.1,232.1,256.6L232.1,256.6z" fill="#d86f32"></path></g><g id="Screen_line_graph"><path class="st0" d="M328,222h137.1l0,0v85.1c0,3.6-2.9,6.5-6.5,6.5H334.5c-3.6,0-6.5-2.9-6.5-6.5L328,222L328,222z"></path><path class="st1" d="M458.6,314.3H334.5c-4,0-7.2-3.2-7.2-7.2V222c0-0.4,0.3-0.6,0.6-0.6l0,0h137.2c0.4,0,0.6,0.3,0.6,0.6v0v85.1
		C465.8,311.1,462.6,314.3,458.6,314.3z M328.6,222.6v84.5c0,3.3,2.6,5.9,5.9,5.9h124.1c3.3,0,5.9-2.6,5.9-5.9v-84.5L328.6,222.6z"></path><path class="st0" d="M334.5,209.8h124.1c3.6,0,6.5,2.9,6.5,6.5v5.6l0,0H328l0,0v-5.6C328,212.8,330.9,209.8,334.5,209.8
		C334.5,209.8,334.5,209.8,334.5,209.8z"></path><path class="st1" d="M465.1,222.6H328c-0.4,0-0.6-0.3-0.6-0.6v0v-5.6c0-4,3.2-7.2,7.2-7.2h124.1c4,0,7.2,3.2,7.2,7.2v5.6
		C465.8,222.3,465.5,222.6,465.1,222.6z M328.6,221.4h135.9v-5c0-3.3-2.6-5.9-5.9-5.9H334.5c-3.3,0-5.9,2.6-5.9,5.9V221.4z"></path><circle class="st3" cx="337.6" cy="215.9" r="2.1"></circle><circle class="st2" cx="345" cy="215.9" r="2.1"></circle><circle class="st2" cx="352.4" cy="215.9" r="2.1"></circle><path class="st2" d="M454.4,237.6h-81.8c-0.4,0-0.7-0.3-0.7-0.7s0.3-0.7,0.7-0.7c0,0,0,0,0,0h81.8c0.4,0,0.7,0.3,0.7,0.7
		C455.1,237.3,454.8,237.6,454.4,237.6z"></path><path class="st2" d="M454.4,253.1h-81.8c-0.4,0-0.7-0.3-0.7-0.7s0.3-0.7,0.7-0.7c0,0,0,0,0,0h81.8c0.4,0,0.7,0.3,0.7,0.7
		C455.1,252.7,454.8,253,454.4,253.1z"></path><path class="st2" d="M454.4,268.5H338.7c-0.4,0-0.7-0.3-0.7-0.7c0-0.4,0.3-0.7,0.7-0.7h115.8c0.4,0,0.7,0.3,0.7,0.7
		C455.1,268.2,454.8,268.5,454.4,268.5z"></path><path class="st2" d="M454.4,284H338.7c-0.4,0-0.7-0.3-0.7-0.7c0-0.4,0.3-0.7,0.7-0.7h115.8c0.4,0,0.7,0.3,0.7,0.7
		S454.8,284,454.4,284C454.4,284,454.4,284,454.4,284z"></path><path class="st2" d="M454.4,299.4H338.7c-0.4,0-0.7-0.3-0.7-0.7c0-0.4,0.3-0.7,0.7-0.7h115.8c0.4,0,0.7,0.3,0.7,0.7
		C455.1,299.1,454.8,299.4,454.4,299.4z"></path><path class="st1" d="M338.7,299.4c-0.2,0-0.4-0.1-0.5-0.2c-0.2-0.3-0.2-0.7,0.1-0.9l25.4-22.4c0.2-0.2,0.5-0.2,0.7-0.1l26,13.5
		l17.4-36.9c0.1-0.2,0.3-0.3,0.5-0.4c0.2,0,0.4,0.1,0.6,0.2l22,28.5l21.1-45c0.2-0.3,0.5-0.4,0.9-0.3c0.3,0.2,0.4,0.5,0.3,0.8
		l-21.6,46c-0.1,0.2-0.3,0.3-0.5,0.4c-0.2,0-0.4-0.1-0.6-0.2L408.5,254l-17.2,36.5c-0.1,0.2-0.2,0.3-0.4,0.3c-0.2,0.1-0.3,0.1-0.5,0
		l-26.2-13.7l-25.1,22.1C339,299.3,338.8,299.4,338.7,299.4z"></path><circle class="st1" cx="340" cy="297.9" r="3.4"></circle><circle class="st1" cx="364.1" cy="276.4" r="3.4"></circle><circle class="st1" cx="390.7" cy="290.2" r="3.4"></circle><circle class="st1" cx="408.4" cy="252.7" r="3.4"></circle><circle class="st1" cx="431" cy="282" r="3.4"></circle><circle class="st1" cx="452.6" cy="236" r="3.4"></circle><path class="st0" d="M357,230.5c0,0.2,0,0.4,0,0.6v3.7c0,0.2,0,0.3,0.3,0.3c1.3,0.1,2.5,0.4,3.7,0.9c1.7,0.7,2.8,2.3,2.8,4.2
		c0.1,1-0.2,2-0.7,2.8c-0.3,0.5-0.7,0.9-1.2,1.2l-0.5,0.3l0.8,0.3c1.2,0.3,2.2,1.1,2.8,2.3c0.2,0.6,0.4,1.2,0.5,1.8
		c0.1,1.1-0.1,2.2-0.5,3.2c-0.5,1.5-1.7,2.7-3.2,3.2c-1.4,0.5-2.8,0.8-4.3,0.8c-0.5,0-0.5,0-0.5,0.5v4.2h-2.8v-4.5H352v4.5h-2.8V256
		h-5.6l0.6-3.3h2c0.6,0,1-0.4,1-0.9c0,0,0,0,0-0.1v-12.1c0.1-0.8-0.5-1.5-1.3-1.5c-0.1,0-0.2,0-0.2,0c-0.7,0-1.4,0-2.1,0v-3h5.6
		v-4.6h2.8c0,0.1,0,0.2,0,0.4v4.1h2.2v-4.4L357,230.5z M352.1,252.7h0.2c1.1,0,2.2,0,3.4-0.1c1,0,2-0.3,2.9-0.7
		c1.2-0.6,1.8-2.1,1.2-3.3c-0.4-0.7-1.1-1.3-1.9-1.5c-1.2-0.4-2.5-0.5-3.8-0.5h-1.9L352.1,252.7z M352.1,243.9c1,0,2,0,3-0.1
		c0.7-0.1,1.4-0.3,2.1-0.5c1.2-0.5,1.8-1.9,1.3-3.1c-0.1-0.3-0.3-0.6-0.6-0.8c-0.6-0.5-1.3-0.8-2-0.9c-1.1-0.2-2.3-0.2-3.5-0.2
		c-0.2,0-0.3,0.1-0.3,0.3c0,1.7,0,3.3,0,5C352,243.6,352.1,243.7,352.1,243.9L352.1,243.9z"></path><path class="st1" d="M352,261.3h-2.8c-0.4,0-0.6-0.3-0.6-0.6v0v-4h-5c-0.2,0-0.4-0.1-0.5-0.2c-0.1-0.1-0.1-0.3-0.1-0.5l0.6-3.3
		c0.1-0.3,0.3-0.5,0.6-0.5h2c0.3,0,0.4-0.1,0.4-0.4l0.6-0.2h-0.6v-11.9c0-0.6-0.3-0.9-0.9-0.9s-1,0-1.4,0h-0.7
		c-0.4,0-0.6-0.3-0.7-0.6c0,0,0-0.1,0-0.1v-3c0-0.4,0.3-0.6,0.6-0.6l0,0h5v-3.9c0-0.4,0.3-0.6,0.6-0.6l0,0h2.8
		c0.3,0,0.6,0.3,0.6,0.6c0,0.1,0,0.3,0,0.4v3.5h0.9v-3.8c0-0.4,0.3-0.6,0.6-0.6l0,0h2.8c0.3,0,0.6,0.3,0.6,0.6v0.2
		c0,0.2,0,0.3,0,0.5v3.4c1.2,0.1,2.5,0.4,3.6,0.9c1.9,0.8,3.2,2.6,3.2,4.7c0.1,1.1-0.2,2.3-0.8,3.2c-0.2,0.3-0.5,0.7-0.8,0.9
		c1.2,0.4,2.2,1.3,2.7,2.5c0.3,0.6,0.4,1.3,0.5,1.9c0.1,1.2,0,2.4-0.4,3.6c-0.6,1.7-1.9,3-3.6,3.6c-1.4,0.5-2.9,0.8-4.3,0.9v4
		c0,0.4-0.3,0.6-0.6,0.6h0h-2.8c-0.4,0-0.6-0.3-0.6-0.6v0v-3.9h-0.9v3.9C352.7,261,352.4,261.3,352,261.3
		C352,261.3,352,261.3,352,261.3z M349.8,260h1.5v-3.9c0-0.4,0.3-0.6,0.6-0.6l0,0h2.2c0.4,0,0.6,0.3,0.6,0.6l0,0v3.9h1.5v-3.7
		c0-0.9,0.6-0.9,1-1c1.4,0,2.8-0.3,4.2-0.8c1.3-0.5,2.4-1.5,2.9-2.8c0.4-1,0.5-2,0.4-3c-0.1-0.5-0.2-1.1-0.4-1.6
		c-0.5-1-1.3-1.7-2.4-1.9l-0.5-0.2l-0.3-0.1c-0.3-0.1-0.5-0.5-0.4-0.8c0-0.2,0.2-0.3,0.3-0.4l0.2-0.1l0.3-0.2c0.4-0.3,0.7-0.6,1-1
		c0.5-0.7,0.7-1.6,0.6-2.5c0.1-1.6-0.9-3-2.4-3.6c-1.1-0.5-2.3-0.7-3.5-0.8c-0.5,0-0.9-0.4-0.8-0.9c0,0,0,0,0-0.1v-3.6h-1.5v3.8
		c0,0.4-0.3,0.6-0.6,0.6l0,0H352c-0.4,0-0.6-0.3-0.6-0.6v0v-3.8h-1.5v3.9c0,0.4-0.3,0.6-0.6,0.6l0,0h-5v1.7h1.5
		c1.1-0.1,2.1,0.8,2.1,1.9c0,0.1,0,0.2,0,0.3v12.1c0,0.9-0.7,1.6-1.6,1.6c0,0,0,0-0.1,0h-1.5l-0.3,2.1h4.9c0.4,0,0.6,0.3,0.6,0.6v0
		L349.8,260z M352.2,253.4H352c-0.3-0.1-0.6-0.3-0.6-0.6v-6.1c0-0.4,0.3-0.6,0.6-0.6l0,0h1.9c1.4,0,2.7,0.1,4,0.5
		c1,0.3,1.8,0.9,2.3,1.8c0.7,1.6,0.1,3.4-1.5,4.2c-1,0.5-2,0.8-3.1,0.8c-0.8,0.1-1.6,0.1-2.4,0.1H352.2z M352.7,247.2v4.9h0.5
		c0.8,0,1.5,0,2.3-0.1c0.9,0,1.8-0.3,2.6-0.7c0.9-0.4,1.3-1.5,0.9-2.5c-0.3-0.6-0.9-1-1.5-1.2c-1.2-0.3-2.4-0.5-3.6-0.5L352.7,247.2
		z M352.1,244.5c-0.3,0-0.6-0.3-0.6-0.6h0.6l-0.6-0.1c0-0.1,0-0.2,0-0.2V242c0-1.2,0-2.3,0-3.5c-0.1-0.5,0.2-0.9,0.7-1
		c0.1,0,0.2,0,0.3,0h0.5c1,0,2.1,0,3.1,0.2c0.9,0.1,1.7,0.5,2.3,1.1c0.7,0.7,1.1,1.7,0.9,2.8c-0.2,1-0.9,1.8-1.8,2.2
		c-0.7,0.3-1.5,0.5-2.2,0.6c-0.7,0.1-1.5,0.1-2.2,0.1h-0.9L352.1,244.5z M352.7,238.8c0,1.1,0,2.1,0,3.2v1.1h0.3c0.7,0,1.4,0,2-0.1
		c0.6-0.1,1.3-0.2,1.9-0.5c0.5-0.2,0.9-0.7,1-1.2c0.1-0.6-0.1-1.2-0.5-1.6c-0.5-0.4-1.1-0.7-1.7-0.7c-0.9-0.1-1.9-0.2-2.9-0.2H352.7
		z"></path></g><g id="Screen_safety"><path class="st0" d="M42.1,291.8h90.7c3.1,0,5.6,2.5,5.6,5.6V321c0,3.1-2.5,5.6-5.6,5.6H42.1c-3.1,0-5.7-2.5-5.7-5.6v-23.6
		C36.5,294.3,39,291.8,42.1,291.8z"></path><path class="st1" d="M132.9,327.3H42.1c-3.5,0-6.3-2.8-6.3-6.3l0,0v-23.6c0-3.5,2.8-6.3,6.3-6.3c0,0,0,0,0,0h90.7
		c3.5,0,6.3,2.8,6.3,6.3l0,0V321C139.1,324.5,136.3,327.3,132.9,327.3L132.9,327.3z M42.1,292.4c-2.8,0-5,2.2-5,5V321
		c0,2.8,2.2,5,5,5h90.7c2.8,0,5-2.2,5-5v-23.6c0-2.8-2.2-5-5-5L42.1,292.4z"></path><path class="st1" d="M56.3,302.2c0,3.6-1.3,5.5-3.7,5.5c-2.1,0-3.5-1.9-3.5-5.4s1.5-5.5,3.7-5.5S56.3,298.9,56.3,302.2z
		 M50.6,302.4c0,2.7,0.8,4.3,2.1,4.3c1.5,0,2.2-1.7,2.2-4.4s-0.7-4.3-2.1-4.3C51.5,298,50.6,299.5,50.6,302.4z"></path><path class="st1" d="M62.4,298.4L62.4,298.4l-1.8,1l-0.3-1.1l2.3-1.2h1.2v10.5h-1.4V298.4z"></path><path class="st1" d="M76.2,302.2c0,3.6-1.3,5.5-3.7,5.5c-2.1,0-3.4-1.9-3.5-5.4s1.5-5.5,3.7-5.5S76.2,298.9,76.2,302.2z
		 M70.5,302.4c0,2.7,0.8,4.3,2.1,4.3c1.5,0,2.2-1.7,2.2-4.4s-0.7-4.3-2.1-4.3C71.4,298,70.5,299.5,70.5,302.4z"></path><path class="st1" d="M86.1,302.2c0,3.6-1.3,5.5-3.7,5.5c-2.1,0-3.4-1.9-3.5-5.4s1.5-5.5,3.7-5.5S86.1,298.9,86.1,302.2z
		 M80.4,302.4c0,2.7,0.8,4.3,2.1,4.3c1.5,0,2.2-1.7,2.2-4.4S84,298,82.5,298C81.3,298,80.4,299.5,80.4,302.4z"></path><path class="st1" d="M92.1,298.4L92.1,298.4l-1.8,1l-0.3-1.1l2.3-1.2h1.2v10.5h-1.4V298.4z"></path><path class="st1" d="M102,298.4L102,298.4l-1.8,1l-0.3-1.1l2.3-1.2h1.2v10.5H102V298.4z"></path><path class="st1" d="M115.9,302.2c0,3.6-1.3,5.5-3.7,5.5c-2.1,0-3.4-1.9-3.5-5.4s1.5-5.5,3.7-5.5S115.9,298.9,115.9,302.2z
		 M110.2,302.4c0,2.7,0.8,4.3,2.1,4.3c1.5,0,2.2-1.7,2.2-4.4s-0.7-4.3-2.1-4.3C111.1,298,110.2,299.5,110.2,302.4z"></path><path class="st1" d="M125.8,302.2c0,3.6-1.3,5.5-3.7,5.5c-2.1,0-3.4-1.9-3.5-5.4s1.5-5.5,3.7-5.5S125.8,298.9,125.8,302.2z
		 M120.1,302.4c0,2.7,0.8,4.3,2.1,4.3c1.5,0,2.2-1.7,2.2-4.4s-0.7-4.3-2.1-4.3C121,298,120.1,299.5,120.1,302.4z"></path><path class="st1" d="M52.4,312.1L52.4,312.1l-1.8,1l-0.3-1.1l2.3-1.2h1.2v10.5h-1.4V312.1z"></path><path class="st1" d="M66.3,316c0,3.6-1.3,5.5-3.7,5.5c-2.1,0-3.5-1.9-3.5-5.4s1.5-5.5,3.7-5.5C64.9,310.7,66.3,312.6,66.3,316z
		 M60.5,316.2c0,2.7,0.8,4.3,2.1,4.3c1.5,0,2.2-1.7,2.2-4.4s-0.7-4.3-2.1-4.3C61.5,311.7,60.5,313.2,60.5,316.2L60.5,316.2z"></path><path class="st1" d="M72.3,312.1L72.3,312.1l-1.8,1l-0.3-1.1l2.3-1.2h1.2v10.5h-1.4V312.1z"></path><path class="st1" d="M86.1,316c0,3.6-1.3,5.5-3.7,5.5c-2,0-3.4-1.9-3.5-5.4s1.5-5.5,3.7-5.5S86.1,312.6,86.1,316z M80.4,316.2
		c0,2.7,0.8,4.3,2.1,4.3c1.5,0,2.2-1.7,2.2-4.4s-0.7-4.3-2.1-4.3C81.3,311.7,80.4,313.2,80.4,316.2L80.4,316.2z"></path><path class="st1" d="M96,316c0,3.6-1.3,5.5-3.7,5.5c-2.1,0-3.5-1.9-3.5-5.4s1.5-5.5,3.7-5.5S96,312.6,96,316z M90.3,316.2
		c0,2.7,0.8,4.3,2.1,4.3c1.4,0,2.2-1.7,2.2-4.4s-0.7-4.3-2.1-4.3C91.2,311.7,90.3,313.2,90.3,316.2L90.3,316.2z"></path><path class="st1" d="M102,312.1L102,312.1l-1.8,1l-0.3-1.1l2.3-1.2h1.2v10.5H102V312.1z"></path><path class="st1" d="M112,312.1L112,312.1l-1.8,1l-0.3-1.1l2.3-1.2h1.2v10.5H112V312.1z"></path><path class="st1" d="M121.9,312.1L121.9,312.1l-1.8,1l-0.3-1.1l2.3-1.2h1.2v10.5h-1.4L121.9,312.1z"></path></g><g id="Coins"><circle class="st0" cx="65.2" cy="171.9" r="19.9"></circle><path class="st1" d="M65.2,192.4c-11.4,0-20.6-9.2-20.6-20.6c0-11.4,9.2-20.6,20.6-20.6s20.6,9.2,20.6,20.6l0,0
		C85.8,183.2,76.6,192.4,65.2,192.4z M65.2,152.6c-10.7,0-19.3,8.6-19.3,19.3c0,10.7,8.6,19.3,19.3,19.3s19.3-8.6,19.3-19.3
		C84.5,161.2,75.9,152.6,65.2,152.6z"></path><path class="st2" d="M65.2,188.2c-9,0-16.3-7.3-16.3-16.3s7.3-16.3,16.3-16.3s16.3,7.3,16.3,16.3C81.5,180.9,74.2,188.2,65.2,188.2
		z M65.2,157c-8.2,0-14.9,6.7-14.9,14.9c0,8.2,6.7,14.9,14.9,14.9s14.9-6.7,14.9-14.9l0,0C80.1,163.7,73.4,157,65.2,157L65.2,157z"></path><path class="st3" d="M67.3,158.9c0,0.2,0,0.4,0,0.5c0,1,0,2.1,0,3.2c0,0.2,0,0.2,0.2,0.3c1.1,0.1,2.2,0.3,3.2,0.8
		c1.5,0.6,2.4,2,2.4,3.6c0.1,0.9-0.1,1.7-0.6,2.4c-0.3,0.4-0.6,0.7-1.1,1l-0.4,0.2c0.3,0.1,0.5,0.1,0.7,0.2c1,0.3,1.9,1,2.3,2
		c0.2,0.5,0.3,1,0.4,1.5c0.1,1,0,1.9-0.3,2.8c-0.5,1.3-1.5,2.3-2.8,2.7c-1.2,0.4-2.4,0.7-3.7,0.7c-0.5,0-0.4,0-0.4,0.4
		c0,1.1,0,2.2,0,3.3v0.3H65V181h-1.9v3.9h-2.5v-4h-4.8l0.5-2.9h0.3c0.5,0,1,0,1.5,0c0.5,0,0.9-0.3,0.9-0.8c0,0,0-0.1,0-0.1
		c0-0.1,0-0.1,0-0.2v-10.3c0.1-0.7-0.4-1.3-1.1-1.3c-0.1,0-0.1,0-0.2,0c-0.6,0-1.2,0-1.8,0v-2.6h4.8v-3.9H63c0,0.1,0,0.2,0,0.3v3.5
		h2v-3.8H67.3z M63.1,178h0.1c1,0,1.9,0,2.9-0.1c0.9,0,1.7-0.3,2.5-0.6c1.1-0.5,1.5-1.8,1-2.9c-0.3-0.6-0.9-1.1-1.6-1.3
		c-1.1-0.3-2.2-0.5-3.3-0.4c-0.5,0-1.1,0-1.6,0L63.1,178z M63.1,170.4c0.9,0,1.8,0,2.6-0.1c0.6-0.1,1.2-0.2,1.8-0.5
		c1-0.4,1.5-1.6,1.1-2.6c-0.1-0.3-0.3-0.6-0.5-0.8c-0.5-0.4-1.1-0.7-1.7-0.8c-1-0.1-2-0.2-3-0.1c-0.2,0-0.3,0.1-0.3,0.3
		c0,1.4,0,2.9,0,4.3C63.1,170.2,63.1,170.2,63.1,170.4L63.1,170.4z"></path><circle class="st0" cx="105" cy="144.9" r="16.5"></circle><path class="st1" d="M105,162c-9.4,0-17.1-7.7-17.1-17.1c0-9.4,7.7-17.1,17.1-17.1s17.1,7.7,17.1,17.1
		C122.1,154.3,114.4,162,105,162z M105,129.1c-8.7,0-15.8,7.1-15.8,15.8c0,8.7,7.1,15.8,15.8,15.8s15.8-7.1,15.8-15.8
		C120.8,136.2,113.7,129.1,105,129.1L105,129.1z"></path><path class="st2" d="M105,158.5c-7.5,0-13.6-6.1-13.6-13.6c0-7.5,6.1-13.6,13.6-13.6s13.6,6.1,13.6,13.6l0,0
		C118.6,152.4,112.5,158.5,105,158.5z M105,132.7c-6.7,0-12.2,5.5-12.2,12.2s5.5,12.2,12.2,12.2s12.2-5.5,12.2-12.2
		C117.2,138.2,111.7,132.7,105,132.7z"></path><path class="st3" d="M106.7,134.2c0,0.1,0,0.3,0,0.4v2.6c0,0.1,0,0.2,0.2,0.2c0.9,0.1,1.8,0.3,2.7,0.6c1.2,0.5,2,1.7,2,3
		c0.1,0.7-0.1,1.4-0.5,2c-0.2,0.3-0.5,0.6-0.9,0.8l-0.3,0.2l0.6,0.2c0.9,0.2,1.6,0.8,2,1.6c0.2,0.4,0.3,0.8,0.3,1.2
		c0.1,0.8,0,1.6-0.3,2.3c-0.4,1.1-1.2,1.9-2.3,2.3c-1,0.4-2,0.6-3.1,0.6c-0.4,0-0.3,0-0.3,0.3v3h-2v-3.2h-1.6v3.2h-2v-3.3h-4
		l0.4-2.4h0.2c0.4,0,0.8,0,1.2,0c0.4,0,0.7-0.3,0.7-0.7c0,0,0,0,0-0.1v-8.6c0.1-0.5-0.3-1-0.9-1.1c-0.1,0-0.1,0-0.2,0
		c-0.5,0-1,0-1.5,0v-2.1h4v-3.3h2c0,0.1,0,0.2,0,0.2v2.9h1.6v-3.2L106.7,134.2z M103.2,150h0.1c0.8,0,1.6,0,2.4-0.1
		c0.7,0,1.4-0.2,2-0.5c0.9-0.4,1.2-1.5,0.8-2.4c-0.3-0.5-0.8-0.9-1.3-1.1c-0.9-0.3-1.8-0.4-2.7-0.4h-1.3L103.2,150z M103.2,143.7
		c0.7,0,1.4,0,2.2-0.1c0.5,0,1-0.2,1.5-0.4c0.9-0.4,1.3-1.4,0.9-2.2c-0.1-0.2-0.2-0.4-0.4-0.6c-0.4-0.3-0.9-0.6-1.4-0.6
		c-0.8-0.1-1.6-0.2-2.5-0.1c-0.2,0-0.2,0.1-0.2,0.2c0,1.2,0,2.4,0,3.6C103.2,143.5,103.2,143.6,103.2,143.7L103.2,143.7z"></path><circle class="st0" cx="108.7" cy="197.3" r="19.9"></circle><path class="st1" d="M108.7,217.8c-11.4,0-20.6-9.2-20.6-20.6c0-11.4,9.2-20.6,20.6-20.6c11.4,0,20.6,9.2,20.6,20.6c0,0,0,0,0,0
		C129.3,208.6,120.1,217.8,108.7,217.8z M108.7,178c-10.7,0-19.3,8.6-19.3,19.3s8.6,19.3,19.3,19.3S128,208,128,197.3c0,0,0,0,0,0
		C128,186.6,119.4,178,108.7,178L108.7,178z"></path><path class="st2" d="M108.7,213.6c-9,0-16.3-7.3-16.3-16.3c0-9,7.3-16.3,16.3-16.3s16.3,7.3,16.3,16.3c0,0,0,0,0,0
		C125,206.3,117.7,213.6,108.7,213.6z M108.7,182.4c-8.2,0-14.9,6.7-14.9,14.9s6.7,14.9,14.9,14.9s14.9-6.7,14.9-14.9c0,0,0,0,0,0
		C123.6,189.1,117,182.4,108.7,182.4z"></path><path class="st3" d="M110.9,184.3c0,0.2,0,0.4,0,0.5c0,1.1,0,2.1,0,3.2c0,0.2,0,0.2,0.2,0.3c1.1,0.1,2.2,0.3,3.2,0.8
		c1.5,0.6,2.4,2,2.4,3.6c0.1,0.9-0.1,1.7-0.6,2.5c-0.3,0.4-0.6,0.7-1,1l-0.4,0.2c0.2,0.1,0.5,0.1,0.7,0.2c1,0.3,1.9,1,2.3,2
		c0.2,0.5,0.3,1,0.4,1.5c0.1,1,0,1.9-0.3,2.8c-0.5,1.3-1.5,2.3-2.8,2.8c-1.2,0.4-2.4,0.7-3.7,0.7c-0.5,0-0.4,0-0.4,0.4v3.6h-2.4
		v-3.9h-1.9v3.9h-2.4v-4h-4.9l0.5-2.9h1.7c0.5,0,0.9-0.3,0.9-0.8c0,0,0-0.1,0-0.1v-10.4c0.1-0.7-0.4-1.3-1.1-1.3c-0.1,0-0.2,0-0.2,0
		c-0.6,0-1.2,0-1.8,0v-2.6h4.8v-3.9h2.4c0,0.1,0,0.2,0,0.3v3.5h1.9v-3.8H110.9z M106.6,203.4h0.1c1,0,1.9,0,2.9-0.1
		c0.9,0,1.7-0.3,2.5-0.6c1.1-0.5,1.5-1.8,1-2.9c-0.3-0.6-0.9-1.1-1.6-1.3c-1.1-0.3-2.2-0.5-3.3-0.4h-1.6L106.6,203.4z M106.6,195.8
		c0.9,0,1.8,0,2.6-0.1c0.6-0.1,1.2-0.2,1.8-0.5c1-0.4,1.5-1.6,1.1-2.6c-0.1-0.3-0.3-0.6-0.5-0.8c-0.5-0.4-1.1-0.7-1.7-0.8
		c-1-0.2-2-0.2-3-0.1c-0.2,0-0.3,0.1-0.3,0.3c0,1.4,0,2.9,0,4.3C106.6,195.6,106.6,195.6,106.6,195.8z"></path></g><g id="Screen_peer_to_peer"><path class="st0" d="M34.8,206.5h103.7l0,0v64.3c0,2.7-2.2,4.9-4.9,4.9l0,0H39.8c-2.7,0-4.9-2.2-4.9-4.9l0,0
		C34.9,270.8,34.9,206.5,34.8,206.5z"></path><path class="st1" d="M133.6,276.4H39.8c-3.1,0-5.6-2.5-5.6-5.6v-64.3c0-0.4,0.3-0.6,0.6-0.6h103.7c0.4,0,0.6,0.3,0.6,0.6v64.3
		C139.1,273.9,136.6,276.4,133.6,276.4z M35.5,207.1v63.7c0,2.4,1.9,4.3,4.3,4.3h93.8c2.4,0,4.3-1.9,4.3-4.3v-63.7H35.5z"></path><path class="st0" d="M39.8,197.3h93.8c2.7,0,4.9,2.2,4.9,4.9l0,0v4.3l0,0H34.8l0,0v-4.3C34.8,199.5,37.1,197.3,39.8,197.3
		L39.8,197.3z"></path><path class="st1" d="M138.5,207.1H34.8c-0.4,0-0.6-0.3-0.6-0.6v-4.2c0-3.1,2.5-5.6,5.6-5.6h93.8c3.1,0,5.6,2.5,5.6,5.6l0,0v4.2
		C139.1,206.8,138.9,207.1,138.5,207.1z M35.5,205.8h102.4v-3.6c0-2.4-1.9-4.3-4.3-4.3H39.8c-2.4,0-4.3,1.9-4.3,4.3L35.5,205.8z"></path><circle class="st1" cx="60.4" cy="225.5" r="6.7"></circle><path class="st1" d="M48.2,245.7c0-6.7,5.4-12.1,12.1-12.1s12.1,5.4,12.1,12.1H48.2z"></path><circle class="st1" cx="113" cy="225.5" r="6.7"></circle><path class="st1" d="M100.8,245.7c0-6.7,5.4-12.1,12.1-12.1c6.7,0,12.1,5.4,12.1,12.1H100.8z"></path><path class="st3" d="M95.5,226.2h-9.9c-2,0.1-3.6-1.4-3.7-3.4s1.4-3.6,3.4-3.7c0.1,0,0.3,0,0.4,0h9.9c2,0.1,3.5,1.8,3.4,3.7
		C98.7,224.6,97.3,226.1,95.5,226.2z M85.6,220.3c-1.3-0.1-2.3,0.9-2.4,2.1c-0.1,1.3,0.9,2.3,2.1,2.4c0.1,0,0.2,0,0.3,0h9.9
		c1.3-0.1,2.2-1.2,2.1-2.4c-0.1-1.1-1-2-2.1-2.1H85.6z"></path><path class="st1" d="M88.5,229.1h-9.9c-2,0-3.6-1.6-3.6-3.6c0-2,1.6-3.6,3.6-3.6h9.9c2,0,3.6,1.6,3.6,3.6
		C92,227.5,90.4,229.1,88.5,229.1z M78.6,223.2c-1.3,0-2.3,1-2.3,2.3c0,1.3,1,2.3,2.3,2.3h9.9c1.3,0,2.3-1,2.3-2.3
		c0-1.3-1-2.3-2.3-2.3H78.6z"></path><path class="st2" d="M117.6,253.6H55.8c-0.4,0-0.7-0.3-0.7-0.7c0-0.4,0.3-0.7,0.7-0.7h61.8c0.4,0,0.7,0.3,0.7,0.7
		C118.3,253.3,118,253.6,117.6,253.6C117.6,253.6,117.6,253.6,117.6,253.6z"></path><path class="st2" d="M117.6,258H55.8c-0.4,0-0.7-0.3-0.7-0.7c0-0.4,0.3-0.7,0.7-0.7h61.8c0.4,0,0.7,0.3,0.7,0.7
		C118.3,257.7,118,258,117.6,258C117.6,258,117.6,258,117.6,258z"></path><path class="st2" d="M111.2,262.4H55.8c-0.4,0-0.7-0.3-0.7-0.7c0-0.4,0.3-0.7,0.7-0.7h55.4c0.4,0,0.7,0.3,0.7,0.7
		C111.9,262.1,111.6,262.4,111.2,262.4z"></path><circle class="st3" cx="42.1" cy="201.9" r="1.6"></circle><circle class="st2" cx="47.7" cy="201.9" r="1.6"></circle><circle class="st2" cx="53.3" cy="201.9" r="1.6"></circle></g></svg>