<svg transform="scale(1)" version="1.1" id="auCCvkNhYJ" xmlns="http://www.w3.org/2000/svg" xmlns:xlink="http://www.w3.org/1999/xlink" x="0px" y="0px" viewBox="0 0 500 500" xml:space="preserve" class="pbimage_pbimage__wrapper__image__0LEis false"><title>Report Analysis 3</title><style type="text/css"> .st0{fill:#FFFFFF;} .st1{fill:#D1D3D4;} .st2{fill:#231F20;} .st3{fill:#68E1FD;} .st4{fill:#FDFFFF;}
 .st4{fill:#FDFFFF;}
 .st3{fill:#d86f32;}
 .st2{fill:#231F20;}
 .st1{fill:#D1D3D4;}
 .st0{fill:#FFFFFF;}</style><g id="Note"><rect class="st0" x="55.3" y="143.8" width="40" height="40" fill="#FFFFFF"></rect><path class="st1" d="M95.3,184.5h-40c-0.4,0-0.7-0.3-0.7-0.7v-40c0-0.4,0.3-0.7,0.7-0.7h40c0.4,0,0.7,0.3,0.7,0.7v40
		C96,184.2,95.7,184.5,95.3,184.5z M56,183.1h38.6v-38.6H56V183.1z" fill="#D1D3D4"></path><path class="st1" d="M88.5,153.4H62.7c-0.4,0-0.7-0.3-0.7-0.7c0-0.4,0.3-0.7,0.7-0.7c0,0,0,0,0,0h25.8c0.4,0,0.7,0.3,0.7,0.7
		C89.2,153.1,88.9,153.4,88.5,153.4z" fill="#D1D3D4"></path><path class="st1" d="M88.5,160.6H62.7c-0.4,0-0.7-0.3-0.7-0.7c0-0.4,0.3-0.7,0.7-0.7c0,0,0,0,0,0h25.8c0.4,0,0.7,0.3,0.7,0.7
		C89.2,160.3,88.9,160.6,88.5,160.6z" fill="#D1D3D4"></path><path class="st1" d="M88.5,167.9H62.7c-0.4,0-0.7-0.3-0.7-0.7c0-0.4,0.3-0.7,0.7-0.7c0,0,0,0,0,0h25.8c0.4,0,0.7,0.3,0.7,0.7
		C89.2,167.5,88.9,167.8,88.5,167.9C88.5,167.9,88.5,167.9,88.5,167.9z" fill="#D1D3D4"></path><path class="st1" d="M81,175.1H62.7c-0.4,0-0.7-0.3-0.7-0.7c0-0.4,0.3-0.7,0.7-0.7c0,0,0,0,0,0H81c0.4,0,0.7,0.3,0.7,0.7
		C81.7,174.8,81.4,175.1,81,175.1C81,175.1,81,175.1,81,175.1z" fill="#D1D3D4"></path></g><g id="Archive"><rect class="st0" x="50.9" y="231.2" width="18.1" height="106.9"></rect><path class="st1" d="M68.9,338.8H50.9c-0.4,0-0.7-0.3-0.7-0.7l0,0V231.2c0-0.4,0.3-0.7,0.7-0.7h18.1c0.4,0,0.7,0.3,0.7,0.7v106.9
		C69.6,338.5,69.3,338.8,68.9,338.8z M51.6,337.4h16.7V232H51.6V337.4z"></path><rect class="st0" x="68.9" y="210.1" width="24" height="106.9"></rect><path class="st1" d="M93,317.7H69c-0.4,0-0.7-0.3-0.7-0.7l0,0V210.1c0-0.4,0.3-0.7,0.7-0.7h24c0.4,0,0.7,0.3,0.7,0.7V317
		C93.7,317.4,93.4,317.7,93,317.7L93,317.7z M69.7,316.3h22.6V210.9H69.6L69.7,316.3z"></path><rect class="st0" x="92.9" y="218.7" width="41.5" height="106.8"></rect><path class="st1" d="M134.4,326.3H93c-0.4,0-0.7-0.3-0.7-0.7l0,0V218.7c0-0.4,0.3-0.7,0.7-0.7h41.5c0.4,0,0.7,0.3,0.7,0.7v106.8
		C135.2,325.9,134.9,326.3,134.4,326.3C134.5,326.3,134.4,326.3,134.4,326.3z M93.6,324.9h40.1V219.4H93.7L93.6,324.9z"></path><path class="st1" d="M59,245.7c-2.4,0-4.4-2-4.4-4.4c0-2.4,2-4.4,4.4-4.4c2.4,0,4.4,2,4.4,4.4l0,0C63.4,243.7,61.4,245.7,59,245.7z
		 M59,238.3c-1.7,0-3,1.3-3,3s1.3,3,3,3s3-1.3,3-3S60.7,238.3,59,238.3z"></path><path class="st1" d="M81,227.1c-2.4,0-4.4-2-4.4-4.4c0-2.4,2-4.4,4.4-4.4c2.4,0,4.4,2,4.4,4.4c0,0,0,0,0,0
		C85.4,225.1,83.4,227.1,81,227.1z M81,219.8c-1.7,0-3,1.3-3,3s1.3,3,3,3s3-1.3,3-3S82.7,219.8,81,219.8z"></path><path class="st1" d="M124.3,238.3H93c-0.4,0-0.7-0.3-0.7-0.7c0-0.4,0.3-0.7,0.7-0.7h31.3c0.4,0,0.7,0.3,0.7,0.7
		C125,238,124.7,238.3,124.3,238.3z"></path><path class="st1" d="M93,254H69c-0.4,0-0.7-0.3-0.7-0.7c0-0.4,0.3-0.7,0.7-0.7c0,0,0,0,0,0h24c0.4,0,0.7,0.3,0.7,0.7
		C93.7,253.7,93.4,254,93,254C93,254,93,254,93,254z"></path></g><g id="Rolled_paper"><path class="st0" d="M422.8,268.2L427,170c0,0-17.4,6.6-28.4-3.6l6,110.4L422.8,268.2z"></path><path class="st1" d="M404.6,277.5c-0.1,0-0.3,0-0.4-0.1c-0.2-0.1-0.3-0.3-0.3-0.6L398,166.4c0-0.3,0.2-0.5,0.4-0.7
		c0.3-0.1,0.6-0.1,0.8,0.1c10.5,9.8,27.5,3.6,27.6,3.5c0.3-0.2,0.8,0,0.9,0.3c0.1,0.1,0.1,0.2,0.1,0.4l-4.2,98.2
		c0,0.3-0.2,0.5-0.4,0.6l-18.2,8.6C404.9,277.5,404.7,277.5,404.6,277.5z M399.5,168l5.8,107.8l16.9-8l4.2-96.8
		C422.5,172.2,409.2,175.6,399.5,168z M422.8,268.2L422.8,268.2z"></path><ellipse class="st0" transform="matrix(0.1271 -0.9919 0.9919 0.1271 193.8565 556.1209)" cx="412.9" cy="167.9" rx="8.4" ry="14.3"></ellipse><path class="st1" d="M414.9,177.1c-0.9,0-1.8-0.1-2.8-0.1c-8.3-0.9-14.6-5.6-14.2-10.7c0.2-1.8,1.1-3.4,2.5-4.5
		c2.9-2.4,7.8-3.5,13.1-2.9c8.3,0.9,14.6,5.6,14.2,10.6c-0.2,1.8-1.1,3.4-2.5,4.5C422.9,176,419.1,177.1,414.9,177.1z M410.9,160.1
		c-3.9,0-7.4,1-9.5,2.8c-1.1,0.8-1.8,2.1-2,3.5c-0.3,4.2,5.5,8.3,13,9.1c4.9,0.5,9.5-0.5,12.1-2.6c1.1-0.8,1.8-2.1,2-3.5
		c0.3-4.2-5.5-8.3-13-9.2C412.6,160.2,411.8,160.1,410.9,160.1L410.9,160.1z"></path><path class="st1" d="M415.6,176.8c-0.4,0-0.7-0.3-0.7-0.7c0-0.3,0.2-0.6,0.5-0.7c1.5-0.4,3-1.2,4.3-2.1c1.4-0.8,2.3-2.2,2.5-3.8
		c0-1.3-0.5-2.6-1.4-3.6c-1.6-1.9-3.8-3-6.3-3.1c-2.4-0.1-4.8,0.5-6.9,1.7c-1.5,0.8-2.4,1.8-2.6,2.9c-0.1,1,0.2,2,0.8,2.7
		c0.7,0.7,1.5,1.2,2.4,1.5l0.3,0.1l0.1-5.5c0-0.2,0.1-0.5,0.3-0.6c2.3-1.4,5.1-1.6,7.6-0.6c0.7,0.2,1.2,0.6,1.7,1.1
		c0.9,1.2,1.2,2.9,0.6,4.3c-0.5,1.3-1.5,2.4-2.7,2.9c-1.1,0.5-2.3,0.7-3.5,0.6c-1.7-0.1-3.4-0.4-5-1.1c-1.1-0.4-2.1-1.1-2.9-1.9
		c-0.9-1.1-1.3-2.5-1.2-3.8c0.2-1.6,1.3-2.9,3.3-3.9c2.3-1.3,5-2,7.6-1.9c2.8,0.2,5.4,1.5,7.2,3.6c2.3,2.4,2.2,6.2-0.1,8.5
		c-0.4,0.4-0.8,0.7-1.3,0.9c-1.4,1-3,1.8-4.8,2.3L415.6,176.8z M410.1,172.2c0.9,0.2,1.9,0.4,2.8,0.4c1,0.1,2-0.1,2.9-0.4
		c0.9-0.4,1.6-1.2,2-2.1c0.4-1,0.2-2.1-0.4-2.9c-0.3-0.3-0.7-0.6-1.2-0.8c-2-0.8-4.2-0.6-6,0.4L410.1,172.2z"></path><path class="st0" d="M447.2,265.2l14.6-96.7c0,0-18,3.8-27.7-8L428.2,271L447.2,265.2z"></path><path class="st1" d="M428.2,271.7c-0.2,0-0.3-0.1-0.4-0.1c-0.2-0.1-0.3-0.4-0.3-0.6l5.8-110.4c0-0.4,0.3-0.7,0.7-0.7
		c0.2,0,0.4,0.1,0.5,0.3c9.4,11.4,26.9,7.8,27,7.7c0.4-0.1,0.8,0.2,0.8,0.5c0,0.1,0,0.2,0,0.3l-14.6,96.7c0,0.3-0.2,0.5-0.5,0.6
		l-19,5.8C428.3,271.6,428.3,271.7,428.2,271.7z M434.7,162.2L429,270l17.6-5.3l14.4-95.3C457.2,169.9,443.4,171.2,434.7,162.2z
		 M447.2,265.2L447.2,265.2z"></path><ellipse class="st0" transform="matrix(0.2977 -0.9547 0.9547 0.2977 157.8141 543.0683)" cx="448" cy="164.3" rx="8.3" ry="14.4"></ellipse><path class="st1" d="M452.5,174c-2.1,0-4.1-0.3-6.1-0.9c-8.2-2.2-13.8-7.8-12.9-12.7c0.4-1.7,1.4-3.1,2.9-4c3.2-2,8.2-2.3,13.4-0.9
		c8.2,2.2,13.8,7.8,12.9,12.7l0,0c-0.4,1.7-1.4,3.1-2.9,4C457.5,173.5,455,174.1,452.5,174z M443.6,156c-2.3-0.1-4.5,0.5-6.5,1.6
		c-1.2,0.7-2,1.8-2.3,3.1c-0.8,4.1,4.6,9.1,11.9,11.1c4.8,1.3,9.5,1,12.3-0.8c1.2-0.7,2-1.8,2.3-3.1l0,0c0.8-4.2-4.6-9.1-11.9-11.1
		C447.5,156.3,445.5,156,443.6,156z M461.9,168L461.9,168z"></path><path class="st1" d="M449.9,173.5c-0.4,0-0.7-0.3-0.7-0.7s0.3-0.7,0.7-0.7c1.6-0.2,3.1-0.7,4.5-1.4c1.4-0.6,2.5-1.9,2.9-3.4
		c0.1-1.3-0.2-2.7-1-3.8c-1.4-2.1-3.5-3.6-5.9-4.1c-2.3-0.4-4.8-0.2-7,0.6c-1.6,0.6-2.5,1.4-2.8,2.4c-0.2,1,0,2,0.5,2.8
		c0.6,0.8,1.3,1.4,2.2,1.9l0.3,0.2l0.7-5.4c0-0.2,0.2-0.5,0.4-0.6c2.5-1,5.3-0.8,7.6,0.5c0.6,0.3,1.2,0.8,1.6,1.4
		c0.8,1.3,0.8,3,0.1,4.4c-0.6,1.2-1.7,2.1-3,2.5c-1.2,0.3-2.4,0.3-3.6,0c-1.7-0.3-3.3-1-4.8-1.9c-1.1-0.6-2-1.4-2.6-2.3
		c-0.8-1.2-1.1-2.6-0.7-4c0.4-1.5,1.6-2.6,3.7-3.4c2.5-0.9,5.2-1.2,7.8-0.7c2.8,0.6,5.2,2.3,6.8,4.7c1,1.4,1.4,3.1,1.2,4.8
		c-0.5,1.9-1.8,3.6-3.6,4.4C453.4,172.7,451.7,173.2,449.9,173.5L449.9,173.5z M444.8,168.1c0.9,0.4,1.8,0.7,2.8,0.9
		c1,0.2,2,0.2,2.9,0c0.9-0.3,1.7-0.9,2.2-1.8c0.8-1.3,0.4-3-0.9-3.8c-0.1-0.1-0.2-0.1-0.3-0.2c-1.8-1.1-4-1.3-6-0.6L444.8,168.1z"></path><path class="st0" d="M409.4,287l-0.5-98.3c0,0,17.1,7.5,28.5-2.1l-10.1,110L409.4,287z"></path><path class="st1" d="M427.2,297.4c-0.1,0-0.2,0-0.3-0.1l-17.8-9.6c-0.2-0.1-0.4-0.4-0.4-0.6l-0.5-98.3c0-0.2,0.1-0.5,0.3-0.6
		c0.2-0.1,0.5-0.1,0.7,0c0.2,0.1,16.9,7.2,27.7-1.9c0.2-0.2,0.5-0.2,0.8-0.1c0.3,0.1,0.4,0.4,0.4,0.7l-10.1,110
		c0,0.2-0.2,0.4-0.4,0.6C427.5,297.4,427.4,297.4,427.2,297.4z M410.1,286.6l16.5,8.9l9.9-107.3c-10,7.1-23.2,2.9-26.9,1.5
		L410.1,286.6z"></path><ellipse class="st0" transform="matrix(0.9982 -5.989229e-02 5.989229e-02 0.9982 -10.5621 25.6993)" cx="423.4" cy="189" rx="14.3" ry="8.4"></ellipse><path class="st1" d="M422.1,196.6c-4.8,0-9-1.4-11.6-3.7c-1.4-1.2-2.2-2.8-2.3-4.6c-0.2-5.1,6.2-9.4,14.6-9.9
		c5.3-0.3,10.1,1.1,13,3.6c1.4,1.2,2.2,2.8,2.3,4.6c0.2,5-6.4,9.4-14.6,9.9C423,196.5,422.5,196.6,422.1,196.6z M424.1,179.7
		c-0.4,0-0.8,0-1.3,0c-7.5,0.4-13.4,4.2-13.3,8.4c0.1,1.4,0.8,2.7,1.9,3.6c2.5,2.3,7.1,3.6,11.9,3.3c7.5-0.4,13.4-4.2,13.3-8.4
		c-0.1-1.4-0.8-2.7-1.9-3.6C432.5,181,428.5,179.7,424.1,179.7L424.1,179.7z"></path><path class="st1" d="M420.1,196.1c-0.1,0-0.1,0-0.2,0c-1.7-0.6-3.3-1.5-4.7-2.6c-1.7-1.2-2.7-3-2.9-5c0-1.7,0.7-3.3,1.9-4.5
		c1.9-2.1,4.6-3.2,7.4-3.2c2.7,0.1,5.3,0.9,7.5,2.3c1.9,1.1,2.9,2.5,3.1,4.1c0.1,1.4-0.4,2.8-1.3,3.8c-0.8,0.8-1.9,1.4-3,1.8
		c-1.6,0.6-3.3,0.8-5,0.8c-1.2,0-2.4-0.2-3.5-0.8c-1.2-0.6-2.2-1.7-2.6-3.1c-0.5-1.5-0.2-3.1,0.8-4.3c0.5-0.5,1.1-0.8,1.8-1
		c2.5-0.8,5.3-0.4,7.5,1.1c0.2,0.1,0.3,0.4,0.3,0.6l-0.1,5.5l0.4-0.1c0.9-0.3,1.7-0.7,2.4-1.4c0.7-0.7,1-1.7,0.9-2.7
		c-0.1-1.1-0.9-2.1-2.5-3c-2-1.3-4.4-2-6.8-2.1l0,0c-2.4,0-4.7,1-6.4,2.8c-0.9,0.9-1.5,2.2-1.5,3.5c0.2,1.6,1.1,3.1,2.4,4
		c1.3,1,2.7,1.8,4.2,2.3c0.4,0.1,0.6,0.5,0.4,0.9C420.6,196.1,420.3,196.2,420.1,196.1z M422.1,185.3c-0.8,0-1.5,0.1-2.2,0.4
		c-0.4,0.1-0.9,0.4-1.2,0.7c-0.6,0.8-0.8,1.9-0.5,2.9c0.3,1,1,1.8,1.9,2.3c0.9,0.4,1.9,0.6,2.9,0.6c0.9,0,1.9-0.1,2.8-0.3l0.1-5.5
		C424.7,185.7,423.3,185.3,422.1,185.3L422.1,185.3z"></path></g><path class="st1" id="Floor" d="M439.7,369.4H39.1c-0.4,0-0.7-0.3-0.7-0.7c0-0.4,0.3-0.7,0.7-0.7h400.5c0.4,0,0.7,0.3,0.7,0.7
	S440.1,369.4,439.7,369.4C439.7,369.4,439.7,369.4,439.7,369.4z"></path><g id="Box_2"><rect class="st0" x="38" y="289" width="114.6" height="88.6"></rect><path class="st1" d="M152.6,378.3H38c-0.4,0-0.7-0.3-0.7-0.7V289c0-0.4,0.3-0.7,0.7-0.7c0,0,0,0,0,0h114.6c0.4,0,0.7,0.3,0.7,0.7
		l0,0v88.6C153.3,378,153,378.3,152.6,378.3z M38.7,376.9h113.2v-87.2H38.7L38.7,376.9z"></path><path class="st1" d="M82.5,319.5H50.9c-0.4,0-0.7-0.3-0.7-0.7l0,0V301c0-0.4,0.3-0.7,0.7-0.7c0,0,0,0,0,0h31.6
		c0.4,0,0.7,0.3,0.7,0.7l0,0v17.8C83.2,319.2,82.9,319.5,82.5,319.5L82.5,319.5z M51.6,318.1h30.2v-16.4H51.6V318.1z"></path></g><g id="Screen"><path class="st0" d="M134.9,143.8h229.4c10.3,0,18.6,8.3,18.6,18.6v166.5c0,10.3-8.3,18.6-18.6,18.6H134.9
		c-10.3,0-18.6-8.3-18.6-18.6V162.5C116.3,152.2,124.6,143.8,134.9,143.8z"></path><path class="st2" d="M364.4,348.3H134.9c-10.7,0-19.3-8.7-19.3-19.3V162.4c0-10.7,8.7-19.3,19.3-19.3h229.4
		c10.7,0,19.3,8.7,19.3,19.3v166.5C383.7,339.6,375,348.3,364.4,348.3z M134.9,144.5c-9.9,0-17.9,8-17.9,17.9v166.5
		c0,9.9,8,17.9,17.9,17.9h229.4c9.9,0,17.9-8,17.9-17.9V162.4c0-9.9-8-17.9-17.9-17.9L134.9,144.5z"></path><circle class="st0" cx="249.6" cy="328.9" r="6.4"></circle><path class="st1" d="M249.6,336c-3.9,0-7.1-3.2-7.1-7.1c0-3.9,3.2-7.1,7.1-7.1c3.9,0,7.1,3.2,7.1,7.1c0,0,0,0,0,0
		C256.7,332.8,253.6,336,249.6,336z M249.6,323.2c-3.1,0-5.7,2.5-5.7,5.7c0,3.1,2.5,5.7,5.7,5.7c3.1,0,5.7-2.5,5.7-5.7c0,0,0,0,0,0
		C255.3,325.8,252.8,323.2,249.6,323.2C249.6,323.2,249.6,323.2,249.6,323.2L249.6,323.2z"></path><path class="st0" d="M201.4,377.4h96.6c2.9,0,5.3,2.4,5.3,5.3v0.8c0,2.9-2.4,5.3-5.3,5.3h-96.6c-2.9,0-5.3-2.4-5.3-5.3v-0.8
		C196,379.8,198.4,377.4,201.4,377.4z"></path><path class="st2" d="M297.9,389.5h-96.6c-3.3,0-6-2.7-6-6v-0.8c0-3.3,2.7-6,6-6h96.6c3.3,0,6,2.7,6,6v0.8
		C303.9,386.8,301.2,389.5,297.9,389.5z M201.3,378.1c-2.6,0-4.6,2.1-4.6,4.6v0.8c0,2.6,2.1,4.6,4.6,4.6h96.6c2.6,0,4.6-2.1,4.6-4.6
		v-0.8c0-2.6-2.1-4.6-4.6-4.6H201.3z"></path><polygon class="st0" points="286.2,377.6 213.1,377.6 218.1,347.6 281.2,347.6 	"></polygon><path class="st2" d="M286.2,378.3h-73.1c-0.2,0-0.4-0.1-0.5-0.2c-0.1-0.2-0.2-0.4-0.1-0.6l5-30c0.1-0.3,0.3-0.6,0.7-0.6h63.1
		c0.3,0,0.6,0.3,0.7,0.6l5,30c0,0.2,0,0.4-0.1,0.6C286.6,378.2,286.4,378.3,286.2,378.3z M213.9,376.9h71.5l-4.8-28.6h-61.9
		L213.9,376.9z"></path><polygon class="st2" points="215.6,362.6 282.2,353.5 281.2,347.6 218.1,347.6 	"></polygon><path class="st2" d="M215.6,363.3c-0.2,0-0.4-0.1-0.5-0.2c-0.2-0.2-0.2-0.4-0.2-0.6l2.5-15c0.1-0.3,0.3-0.6,0.7-0.6h63.1
		c0.3,0,0.6,0.3,0.7,0.6l1,6c0,0.2,0,0.4-0.1,0.5c-0.1,0.2-0.3,0.3-0.5,0.3l-66.6,9L215.6,363.3z M218.7,348.3l-2.3,13.5l64.9-8.8
		l-0.8-4.7H218.7z"></path><path class="st2" id="Floor-2" d="M383.4,314.1H115.8c-0.4,0-0.7-0.3-0.7-0.7c0-0.4,0.3-0.7,0.7-0.7h267.6c0.4,0,0.7,0.3,0.7,0.7
		C384.1,313.8,383.8,314.1,383.4,314.1z"></path></g><g id="Analysis"><rect class="st3" x="148.2" y="120.1" width="202.9" height="193.3"></rect><rect class="st0" x="167.1" y="226.4" width="19.5" height="15.4"></rect><path class="st4" d="M266.7,230.2h-61.4c-0.8,0-1.4-0.6-1.4-1.4c0-0.8,0.6-1.4,1.4-1.4l0,0h61.4c0.8,0,1.4,0.6,1.4,1.4
		C268.1,229.6,267.4,230.2,266.7,230.2z"></path><path class="st4" d="M253.8,239h-48.5c-0.8,0-1.4-0.6-1.4-1.4c0-0.8,0.6-1.4,1.4-1.4l0,0h48.6c0.8,0,1.4,0.6,1.4,1.4
		C255.2,238.4,254.6,239,253.8,239L253.8,239z"></path><path class="st3" d="M175,238.7c-0.1,0-0.3,0-0.4,0c-0.6-0.1-1.2-0.5-1.5-1.1l-1.8-3.6c-0.5-1-0.1-2.3,0.9-2.8
		c1-0.5,2.3-0.1,2.8,0.9l0.6,1.2l4.2-3.6c0.9-0.8,2.2-0.7,3,0.1c0.8,0.9,0.7,2.2-0.1,3c0,0-0.1,0.1-0.1,0.1l-6.2,5.4
		C176,238.6,175.5,238.8,175,238.7z"></path><rect class="st0" x="167.1" y="253.3" width="19.5" height="15.4"></rect><path class="st4" d="M266.7,257.1h-61.4c-0.8,0-1.4-0.6-1.4-1.4c0-0.8,0.6-1.4,1.4-1.4l0,0h61.4c0.8,0,1.4,0.6,1.4,1.4
		C268.1,256.5,267.4,257.1,266.7,257.1z"></path><path class="st4" d="M253.8,266h-48.5c-0.8,0-1.4-0.6-1.4-1.4c0-0.8,0.6-1.4,1.4-1.4h48.6c0.8,0,1.4,0.6,1.4,1.4
		C255.2,265.4,254.6,266,253.8,266L253.8,266z"></path><path class="st3" d="M175,265.7c-0.1,0-0.3,0-0.4,0c-0.6-0.1-1.2-0.5-1.5-1.1l-1.8-3.6c-0.5-1-0.1-2.3,0.9-2.8
		c1-0.5,2.3-0.1,2.8,0.9l0.6,1.2l4.2-3.6c0.9-0.8,2.2-0.7,3,0.1c0.8,0.9,0.7,2.2-0.1,3c0,0-0.1,0.1-0.1,0.1l-6.2,5.4
		C176,265.5,175.5,265.7,175,265.7z"></path><path class="st0" d="M288.1,225.6c-0.9,0.8-1.7,1.6-2.5,2.4c-3.9,4.4-6.2,9.9-6.5,15.8h11.6c0.8-6.9,6.3-12.4,13.2-13.2v-11.6
		C298,219.4,292.5,221.7,288.1,225.6z"></path><path class="st0" d="M332.1,243.8c-0.4-5.8-2.7-11.4-6.5-15.8l-8.2,8.2c1.7,2.2,2.8,4.8,3.1,7.6c0.1,0.6,0.1,1.2,0.1,1.7
		c0,0.6,0,1.2-0.1,1.7c-0.3,2.8-1.4,5.4-3.2,7.6c-0.7,0.9-1.5,1.7-2.5,2.4c-2.2,1.7-4.8,2.8-7.6,3.2c-1.1,0.1-2.3,0.1-3.5,0
		c-2.8-0.3-5.4-1.4-7.6-3.1c-0.9-0.7-1.7-1.5-2.5-2.4c-1.7-2.2-2.8-4.8-3.2-7.6h-11.6c0.4,5.8,2.7,11.4,6.6,15.8
		c0.8,0.9,1.6,1.7,2.4,2.4c4.4,3.9,9.9,6.2,15.8,6.5c0.6,0,1.1,0.1,1.7,0.1s1.2,0,1.7-0.1c5.8-0.4,11.4-2.7,15.8-6.5
		c0.9-0.8,1.7-1.6,2.5-2.4c3.9-4.4,6.2-9.9,6.5-15.8c0-0.6,0.1-1.1,0.1-1.7S332.1,244.4,332.1,243.8z"></path><path class="st2" d="M323.1,225.6c-4.4-3.9-9.9-6.2-15.8-6.6v11.6c2.8,0.3,5.4,1.4,7.6,3.2L323.1,225.6z"></path><path class="st2" d="M314.9,234.5c-0.2,0-0.3-0.1-0.4-0.1c-2.1-1.7-4.6-2.7-7.2-3c-0.4,0-0.6-0.3-0.6-0.7v-11.6
		c0-0.2,0.1-0.4,0.2-0.5c0.1-0.1,0.3-0.2,0.5-0.2c6,0.4,11.7,2.7,16.2,6.7c0.1,0.1,0.2,0.3,0.2,0.5c0,0.2-0.1,0.4-0.2,0.5l-8.2,8.2
		C315.3,234.4,315.1,234.5,314.9,234.5z M308,230c2.5,0.4,4.8,1.4,6.8,2.8l7.2-7.2c-4-3.3-8.9-5.3-14.1-5.8V230z"></path><path class="st2" d="M326.5,290.4H167.1c-0.8,0-1.4-0.6-1.4-1.4c0-0.8,0.6-1.4,1.4-1.4h159.4c0.8,0,1.4,0.6,1.4,1.4
		C327.9,289.8,327.3,290.4,326.5,290.4z"></path><path class="st2" d="M270.5,206.6H167.1c-0.8,0-1.4-0.6-1.4-1.4v-55.6c0-0.8,0.6-1.4,1.4-1.4c0.8,0,1.4,0.6,1.4,1.4v54.2h102
		c0.8,0,1.4,0.6,1.4,1.4C271.9,206,271.3,206.6,270.5,206.6L270.5,206.6z"></path><path class="st4" d="M173.2,199.7c-0.2,0-0.4-0.1-0.6-0.1c-0.7-0.3-1-1.2-0.6-1.9c0.5-0.9,11.7-22.7,26.3-27.3
		c8.5-2.6,11.4,2.2,13.9,6.5c2.3,3.9,4.3,7.2,10,6.8c6.3-0.4,9.9-6.7,13.4-12.7c3.6-6.2,7.3-12.6,14.1-12.4c11.7,0.5,16.8,0,16.8,0
		c0.8-0.1,1.5,0.5,1.5,1.3c0.1,0.8-0.5,1.5-1.3,1.5c-0.2,0-5.3,0.5-17.2,0c-5-0.2-8.2,5.2-11.5,11c-3.7,6.4-7.9,13.6-15.6,14.1
		c-7.5,0.5-10.3-4.3-12.6-8.1c-2.5-4.2-4.3-7.2-10.7-5.2c-13.5,4.2-24.6,25.6-24.7,25.9C174.2,199.4,173.7,199.7,173.2,199.7z"></path><path class="st4" d="M336.4,206.6h-44.9c-0.8,0-1.4-0.6-1.4-1.4v-48.7c0-0.8,0.6-1.4,1.4-1.4h44.9c0.8,0,1.4,0.6,1.4,1.4v48.7
		C337.8,206,337.2,206.6,336.4,206.6z M292.9,203.8H335v-45.9h-42.1L292.9,203.8z"></path><path class="st4" d="M310.8,206.6c-0.8,0-1.4-0.6-1.4-1.4v-48.7c0-0.8,0.6-1.4,1.4-1.4c0.8,0,1.4,0.6,1.4,1.4v48.7
		C312.2,206,311.6,206.6,310.8,206.6z"></path><path class="st4" d="M336.4,170.2h-44.9c-0.8,0-1.4-0.6-1.4-1.4c0-0.8,0.6-1.4,1.4-1.4h44.9c0.8,0,1.4,0.6,1.4,1.4
		C337.8,169.6,337.2,170.2,336.4,170.2L336.4,170.2z"></path><path class="st2" d="M191.3,140.5c-1.5-0.1-2.9-1.1-3.4-2.5c-1.4-3.2-3.7-12.1-3.5-14c0.2-2.2,1.3-2.8,1.9-2.8
		c1.4-0.2,2.9,1.1,3.8,3.2s2.4,10.1,2.5,10.5c0.1,0.4-0.2,0.7-0.6,0.8c0,0,0,0,0,0c-0.4,0.1-0.7-0.2-0.8-0.6c0-0.1-1.5-8.2-2.4-10.2
		c-0.8-1.8-1.8-2.5-2.3-2.4s-0.6,0.7-0.7,1.6c-0.1,1.4,2,9.9,3.4,13.3c0.3,1.1,1.5,1.8,2.7,1.6c1.6-0.4,3-2.6,2.5-6.4
		c-0.9-7.6-5.3-17.6-7.3-19.9c-0.6-0.8-1.7-1.1-2.6-0.6c-1.4,0.8-2.2,3.5-0.6,7.4c0.1,0.4,0,0.8-0.4,0.9c-0.4,0.1-0.8,0-0.9-0.4l0,0
		c-1.9-4.7-0.8-8,1.2-9.1c1.5-0.9,3.3-0.5,4.3,0.9c2.4,2.8,6.8,13.1,7.6,20.6c0.6,4.7-1.4,7.3-3.5,7.9
		C191.9,140.4,191.6,140.5,191.3,140.5z"></path></g><g id="Box_1"><path class="st0" d="M391.7,245.7h68.5l0,0v117.1c0,7.3-5.9,13.2-13.2,13.2h-42.1c-7.3,0-13.2-5.9-13.2-13.2l0,0V245.7L391.7,245.7
		z"></path><path class="st1" d="M447,376.7h-42.1c-7.7,0-13.8-6.2-13.9-13.9V245.7c0-0.4,0.3-0.7,0.7-0.7l0,0h68.5c0.4,0,0.7,0.3,0.7,0.7
		c0,0,0,0,0,0v117.1C460.9,370.5,454.7,376.7,447,376.7z M392.4,246.4v116.4c0,6.9,5.6,12.5,12.5,12.5H447c6.9,0,12.5-5.6,12.5-12.5
		V246.4H392.4z"></path><rect class="st0" x="437.2" y="255.4" width="15.2" height="10.9"></rect><path class="st1" d="M452.5,267h-15.2c-0.4,0-0.7-0.3-0.7-0.7v0v-10.9c0-0.4,0.3-0.7,0.7-0.7l0,0h15.2c0.4,0,0.7,0.3,0.7,0.7
		c0,0,0,0,0,0v10.9C453.2,266.7,452.9,267,452.5,267z M437.9,265.6h13.9v-9.5h-13.9V265.6z"></path></g></svg>